<?xml version="1.0" encoding="utf-8"?>
<svg viewBox="263.815 152.736 40.464 40.973" width="40.464" height="40.973" xmlns="http://www.w3.org/2000/svg">
  <path id="path133255" style="fill:#64d22d;fill-opacity:1;stroke-width:0.0673378" d="M 82.731 -52.779 C 81.035 -53.192 79.22 -53.109 77.576 -52.521 C 75.867 -51.924 74.359 -50.773 73.332 -49.282 C 72.235 -47.706 71.675 -45.743 71.875 -43.825 C 72.042 -42.162 72.765 -40.55 73.944 -39.359 C 75.216 -38.053 76.992 -37.218 78.825 -37.182 C 80.657 -37.14 82.507 -37.939 83.685 -39.353 C 84.678 -40.533 85.224 -42.119 85.034 -43.662 C 84.878 -44.977 84.176 -46.227 83.11 -47.016 C 82.295 -47.605 81.248 -47.807 80.26 -47.689 C 79.746 -47.627 79.235 -47.504 78.759 -47.297 C 78.058 -46.966 77.569 -46.239 77.523 -45.466 C 77.465 -44.687 77.86 -43.895 78.521 -43.477 C 79.094 -43.1 79.845 -43.021 80.486 -43.263 C 80.548 -43.275 80.653 -43.35 80.655 -43.24 C 80.742 -42.879 80.571 -42.51 80.359 -42.225 C 79.968 -41.713 79.273 -41.507 78.651 -41.599 C 77.643 -41.748 76.77 -42.51 76.431 -43.464 C 76.112 -44.311 76.185 -45.274 76.555 -46.093 C 77.032 -47.186 77.995 -48.051 79.131 -48.413 C 80.27 -48.795 81.545 -48.687 82.632 -48.19 C 84.066 -47.55 85.205 -46.281 85.674 -44.781 C 86.103 -43.463 86.034 -42.003 85.534 -40.715 C 85.048 -39.436 84.136 -38.367 83.106 -37.489 C 82.381 -36.87 81.575 -36.355 80.745 -35.89 C 79.438 -35.135 78.131 -34.381 76.824 -33.626 C 75.277 -34.516 73.735 -35.414 72.186 -36.299 C 70.273 -37.357 68.159 -38.112 65.967 -38.266 C 63.478 -38.451 60.919 -37.766 58.894 -36.295 C 57.248 -35.11 55.957 -33.426 55.281 -31.511 C 54.43 -29.15 54.495 -26.457 55.534 -24.166 C 56.464 -22.091 58.21 -20.386 60.33 -19.551 C 62.465 -18.7 64.953 -18.73 67.038 -19.713 C 68.889 -20.574 70.381 -22.206 71.01 -24.154 C 71.58 -25.883 71.501 -27.838 70.698 -29.482 C 69.932 -31.08 68.46 -32.337 66.741 -32.791 C 65.168 -33.211 63.404 -32.985 62.045 -32.067 C 60.893 -31.299 60.084 -30.03 59.898 -28.656 C 59.773 -27.669 60.093 -26.663 60.665 -25.861 C 60.986 -25.413 61.369 -25.005 61.811 -24.674 C 62.469 -24.21 63.386 -24.158 64.092 -24.545 C 64.803 -24.914 65.269 -25.7 65.252 -26.502 C 65.249 -27.124 64.965 -27.737 64.492 -28.141 C 64.464 -28.183 64.344 -28.24 64.354 -28.297 C 64.579 -28.558 64.955 -28.612 65.281 -28.599 C 65.901 -28.577 66.445 -28.146 66.723 -27.609 C 67.104 -26.87 67.062 -25.961 66.721 -25.216 C 66.296 -24.298 65.402 -23.643 64.421 -23.431 C 63.156 -23.145 61.77 -23.489 60.784 -24.331 C 59.854 -25.099 59.27 -26.246 59.128 -27.438 C 58.922 -29.023 59.437 -30.686 60.51 -31.872 C 61.455 -32.941 62.796 -33.632 64.204 -33.834 C 65.516 -34.031 66.856 -33.785 68.096 -33.349 C 68.862 -33.079 69.598 -32.728 70.301 -32.322 C 70.413 -32.258 70.558 -32.174 70.683 -32.102 C 71.999 -31.343 73.315 -30.584 74.631 -29.824 C 74.632 -28.044 74.626 -26.264 74.633 -24.483 C 74.674 -22.298 75.074 -20.09 76.033 -18.113 C 77.121 -15.848 79.012 -13.965 81.316 -12.948 C 83.115 -12.146 85.151 -11.869 87.096 -12.201 C 89.419 -12.587 91.603 -13.813 93.1 -15.637 C 94.219 -16.991 94.93 -18.676 95.111 -20.423 C 95.334 -22.515 94.757 -24.678 93.522 -26.38 C 92.517 -27.781 91.057 -28.863 89.4 -29.357 C 88.098 -29.751 86.686 -29.792 85.37 -29.438 C 83.672 -28.993 82.125 -27.929 81.181 -26.439 C 80.209 -24.93 79.917 -22.987 80.463 -21.271 C 80.933 -19.775 82.001 -18.447 83.43 -17.775 C 84.651 -17.194 86.114 -17.133 87.37 -17.64 C 88.292 -18.019 89.01 -18.796 89.423 -19.693 C 89.657 -20.2 89.821 -20.742 89.89 -21.297 C 89.96 -22.075 89.576 -22.871 88.923 -23.3 C 88.248 -23.759 87.314 -23.793 86.61 -23.379 C 86.033 -23.055 85.628 -22.456 85.527 -21.803 C 85.522 -21.719 85.491 -21.654 85.401 -21.705 C 85.041 -21.831 84.81 -22.177 84.677 -22.519 C 84.457 -23.112 84.639 -23.797 85.027 -24.278 C 85.674 -25.071 86.779 -25.437 87.777 -25.237 C 88.724 -25.068 89.556 -24.453 90.071 -23.65 C 90.707 -22.69 90.92 -21.467 90.653 -20.347 C 90.394 -19.187 89.658 -18.16 88.688 -17.483 C 87.405 -16.568 85.726 -16.232 84.191 -16.596 C 82.823 -16.901 81.59 -17.72 80.732 -18.822 C 79.907 -19.875 79.457 -21.173 79.219 -22.476 C 79.107 -23.103 79.045 -23.738 79.025 -24.374 C 79.024 -24.412 79.021 -24.53 79.02 -24.598 C 79.016 -26.34 79.02 -28.081 79.02 -29.823 C 80.56 -30.715 82.105 -31.6 83.643 -32.497 C 85.516 -33.624 87.227 -35.076 88.46 -36.894 C 89.873 -38.963 90.56 -41.533 90.294 -44.031 C 90.087 -46.054 89.268 -48.017 87.939 -49.561 C 86.594 -51.141 84.75 -52.292 82.731 -52.779 Z" transform="matrix(1, 0, 0, 1, 209.121069, 205.772284)"/>
</svg>