<?xml version="1.0" standalone="no"?>
<!DOCTYPE svg PUBLIC "-//W3C//DTD SVG 20010904//EN"
 "http://www.w3.org/TR/2001/REC-SVG-20010904/DTD/svg10.dtd">
<svg version="1.0" xmlns="http://www.w3.org/2000/svg"
 width="656.000000pt" height="656.000000pt" viewBox="0 0 656.000000 656.000000"
 preserveAspectRatio="xMidYMid meet">
<metadata>
Created by potrace 1.14, written by Peter Selinger 2001-2017
</metadata>
<g transform="translate(0.000000,656.000000) scale(0.100000,-0.100000)"
fill="#000000" stroke="none">
<path d="M4028 6555 c-3 -3 -61 -14 -108 -20 -116 -16 -341 -99 -455 -168 -46
-28 -172 -117 -196 -138 -14 -13 -41 -38 -60 -55 -19 -17 -54 -54 -79 -83 -25
-29 -50 -58 -55 -65 -33 -35 -175 -266 -175 -284 0 -3 -12 -34 -26 -70 -14
-35 -27 -73 -29 -83 -2 -11 -7 -24 -10 -29 -7 -11 -12 -36 -21 -90 -3 -19 -7
-41 -9 -48 -23 -66 -23 -358 -1 -422 3 -8 7 -32 10 -52 17 -112 114 -332 198
-445 62 -84 155 -180 228 -236 30 -23 57 -44 60 -47 20 -20 186 -105 253 -130
132 -48 226 -65 372 -64 140 0 199 9 310 46 300 100 521 317 623 613 43 123
57 274 37 392 -4 21 -8 47 -10 58 -20 122 -120 305 -215 392 -73 66 -97 84
-157 114 -57 28 -90 39 -163 56 -55 12 -227 9 -285 -4 -33 -8 -67 -16 -75 -18
-8 -2 -39 -13 -69 -25 -192 -75 -277 -287 -191 -475 39 -85 131 -164 218 -187
44 -12 163 -17 177 -7 6 3 22 9 38 13 37 9 49 -22 30 -77 -28 -80 -63 -124
-126 -156 -220 -112 -512 67 -567 346 -17 83 -6 234 19 282 5 9 9 19 10 24 6
48 88 174 159 243 138 135 303 200 502 197 103 -2 139 -7 237 -36 57 -17 203
-87 223 -107 3 -3 28 -23 55 -45 150 -120 254 -276 303 -455 28 -103 34 -141
36 -243 2 -81 -2 -127 -19 -227 -9 -50 -53 -176 -82 -235 -34 -68 -124 -202
-167 -249 -20 -21 -36 -40 -36 -42 0 -4 -85 -85 -142 -135 -103 -92 -242 -183
-533 -349 -16 -10 -118 -68 -225 -130 -107 -62 -209 -120 -226 -130 l-31 -18
-129 75 c-421 245 -673 387 -777 437 -64 31 -120 56 -123 56 -3 0 -20 6 -37
14 -38 17 -199 74 -230 81 -12 2 -58 14 -102 25 -93 24 -114 28 -265 48 -68
10 -384 8 -435 -3 -16 -3 -47 -8 -67 -11 -20 -3 -61 -12 -90 -20 -29 -8 -62
-16 -73 -18 -33 -5 -159 -48 -172 -59 -7 -5 -13 -6 -13 -3 0 4 -17 -1 -37 -12
-21 -11 -56 -28 -78 -38 -240 -113 -481 -321 -641 -554 -29 -42 -118 -199
-119 -210 -1 -3 -6 -15 -13 -26 -12 -23 -64 -163 -63 -171 0 -2 -6 -21 -14
-44 -9 -23 -18 -54 -20 -68 -31 -153 -37 -205 -40 -351 -2 -147 6 -246 29
-350 3 -14 8 -38 12 -55 3 -16 19 -70 36 -120 102 -304 296 -559 566 -742 82
-56 263 -144 337 -164 17 -4 55 -15 85 -23 102 -28 207 -40 350 -40 136 0 211
8 311 35 139 36 189 55 287 105 83 43 184 109 190 126 2 4 8 8 14 8 19 0 185
174 233 244 45 65 56 84 94 161 89 180 122 332 116 545 -4 151 -5 165 -24 240
-78 307 -267 547 -536 680 -46 23 -90 43 -97 44 -7 1 -17 4 -23 7 -5 4 -32 12
-60 18 -27 6 -61 14 -75 18 -53 12 -267 11 -340 -2 -339 -62 -602 -309 -666
-626 -45 -223 28 -432 217 -619 39 -39 92 -80 124 -96 179 -87 391 -11 476
173 35 74 34 208 -3 285 -14 31 -45 76 -67 101 -23 24 -41 47 -41 51 0 26 168
56 195 35 6 -4 15 -8 20 -9 51 -8 149 -96 161 -144 3 -14 9 -26 13 -26 4 0 8
-6 9 -12 0 -7 4 -26 8 -43 10 -36 10 -170 2 -205 -19 -76 -65 -162 -119 -221
-56 -62 -163 -127 -234 -145 -17 -4 -34 -9 -40 -12 -14 -8 -81 -15 -150 -15
-189 -1 -350 67 -486 202 -144 145 -219 327 -222 541 -1 141 6 189 45 309 29
87 117 252 138 259 6 2 10 8 10 14 0 15 119 130 183 176 29 21 85 55 124 75
72 37 183 81 183 71 0 -3 8 0 18 5 9 5 32 12 50 15 17 3 47 9 65 12 45 9 230
10 297 1 80 -10 105 -15 205 -42 195 -53 333 -118 703 -334 134 -77 245 -141
247 -141 2 0 33 -18 69 -40 36 -22 68 -40 71 -40 3 0 20 -10 38 -22 18 -13 34
-24 35 -25 2 -1 5 -235 7 -520 1 -285 5 -529 8 -543 3 -14 8 -54 11 -89 4 -35
8 -73 11 -85 2 -11 7 -37 9 -57 3 -20 8 -42 11 -50 3 -8 7 -27 10 -44 8 -51
32 -153 39 -164 4 -6 9 -21 11 -33 8 -38 50 -153 58 -159 5 -3 8 -8 7 -10 -10
-26 181 -376 211 -387 5 -2 9 -8 9 -14 0 -5 6 -15 13 -23 6 -7 28 -32 47 -56
42 -53 184 -195 225 -226 17 -13 47 -36 68 -52 21 -16 61 -44 90 -62 29 -18
54 -36 57 -39 4 -5 172 -87 225 -111 97 -42 287 -90 430 -108 73 -9 326 -7
405 3 120 16 319 76 438 132 41 19 78 34 83 34 5 0 9 5 9 10 0 6 6 10 14 10
19 0 177 105 251 167 52 43 107 98 191 186 56 60 195 281 222 352 33 89 79
221 80 228 0 4 3 20 6 35 26 117 30 164 30 312 0 133 -4 193 -19 260 -4 14 -8
34 -10 45 -10 53 -17 80 -36 133 -74 206 -178 378 -312 515 -208 213 -435 332
-717 375 -92 14 -320 8 -400 -11 -8 -2 -33 -7 -54 -12 -22 -4 -66 -18 -98 -31
-32 -12 -58 -21 -58 -18 0 2 -39 -17 -87 -42 -273 -143 -441 -333 -549 -619
-11 -30 -28 -100 -40 -165 -11 -59 -9 -232 3 -305 26 -158 95 -315 190 -436
36 -47 151 -156 194 -185 46 -31 153 -85 204 -103 135 -47 316 -56 443 -21 21
5 39 9 42 9 3 -1 31 10 62 24 139 62 244 163 319 307 13 25 24 47 24 50 1 3
14 43 29 90 32 97 40 228 17 277 -39 81 -49 97 -78 128 -93 99 -242 136 -373
94 -94 -31 -196 -139 -220 -233 -6 -22 -13 -46 -15 -53 -11 -33 -94 33 -122
97 -14 34 -17 44 -26 100 -6 34 19 125 45 169 23 37 107 121 121 121 5 0 15 6
23 14 24 24 141 58 212 60 230 10 439 -135 535 -371 72 -176 68 -375 -10 -551
-110 -248 -380 -444 -663 -479 -130 -17 -304 -3 -395 31 -11 5 -38 15 -60 23
-42 15 -147 65 -155 73 -3 3 -28 21 -56 40 -95 65 -215 189 -260 268 -10 17
-22 32 -26 32 -4 0 -8 9 -8 19 0 11 -4 21 -8 23 -14 6 -96 193 -106 243 -3 11
-14 56 -25 100 -11 44 -22 96 -25 115 -3 19 -7 44 -10 55 -14 67 -19 243 -20
643 -1 249 1 456 4 461 5 6 40 29 115 74 17 10 38 20 48 23 9 4 17 10 17 15 0
5 5 9 12 9 6 0 32 13 57 29 25 16 154 91 286 167 218 125 323 189 365 221 8 6
54 41 103 77 118 89 126 96 241 211 99 99 115 116 187 205 118 147 263 423
304 580 14 52 37 149 41 169 3 14 7 27 9 30 22 36 27 551 5 551 -3 0 -6 16 -8
37 -1 20 -9 63 -18 97 -9 34 -17 66 -19 71 -1 6 -4 17 -7 25 -3 8 -16 44 -28
80 -46 134 -162 342 -257 460 -61 77 -273 277 -307 289 -6 2 -16 9 -23 15 -29
26 -42 36 -47 36 -3 0 -29 15 -58 33 -98 63 -342 163 -414 172 -11 1 -25 5
-31 8 -5 3 -32 9 -59 12 -27 4 -68 10 -90 14 -38 7 -330 12 -336 6z"/>
</g>
</svg>
