<svg xmlns="http://www.w3.org/2000/svg" version="1.1" xmlns:xlink="http://www.w3.org/1999/xlink" xmlns:svgjs="http://svgjs.dev/svgjs" viewBox="0 0 800 800"><defs><linearGradient x1="50%" y1="0%" x2="50%" y2="100%" id="ssspill-grad"><stop stop-color="hsl(265, 55%, 30%)" stop-opacity="1" offset="45%"></stop><stop stop-color="hsl(265, 55%, 60%)" stop-opacity="1" offset="100%"></stop></linearGradient><filter id="ssspot-filter" x="-20%" y="-20%" width="140%" height="140%" filterUnits="objectBoundingBox" primitiveUnits="userSpaceOnUse" color-interpolation-filters="sRGB">
	<feTurbulence type="turbulence" baseFrequency="0.022 0.218" numOctaves="2" seed="182" stitchTiles="stitch" x="0%" y="0%" width="100%" height="100%" result="turbulence"></feTurbulence>
	<feGaussianBlur stdDeviation="0 3" x="0%" y="0%" width="100%" height="100%" in="turbulence" edgeMode="duplicate" result="blur"></feGaussianBlur>
	<feDisplacementMap in="SourceGraphic" in2="blur" scale="32" xChannelSelector="R" yChannelSelector="B" x="0%" y="0%" width="100%" height="100%" result="displacementMap"></feDisplacementMap>
</filter></defs><rect width="100%" height="100%" fill="hsl(0, 0%, 0%)"></rect><g fill="url(#ssspill-grad)" filter="url(#ssspot-filter)"><circle r="8.589783869890747" cx="252.66960387976502" cy="538.2721306092774" opacity="0.36811366297878245"></circle><circle r="3.0880440160332205" cx="599.9498982333522" cy="464.36471529064465" opacity="0.9789943428419007"></circle><circle r="10.690161563221029" cx="354.2433700711272" cy="636.2631774866056" opacity="0.7904879445156999"></circle><circle r="9.455284743686004" cx="444.00559672136654" cy="64.70689518026212" opacity="0.6955864335507097"></circle><circle r="5.801443628484893" cx="623.2095973454016" cy="458.6671626337661" opacity="0.568296278849832"></circle><circle r="8.58089778815145" cx="274.4813970761932" cy="127.06069033545702" opacity="0.896952887632985"></circle><circle r="4.9366622887041185" cx="547.3507739598268" cy="360.6764172715379" opacity="0.29131267100268426"></circle><circle r="5.5756472373923955" cx="471.68737863915925" cy="106.8625449273722" opacity="0.8476763075930008"></circle><circle r="7.340330894601765" cx="486.149106186612" cy="78.18348874143764" opacity="0.43707755645281277"></circle><circle r="4.719889052787656" cx="62.96584210521001" cy="138.83021316557515" opacity="0.5487895063925706"></circle><circle r="9.571043589890081" cx="170.77802069683256" cy="112.2186604312989" opacity="0.937705433979016"></circle><circle r="7.578150963117025" cx="773.585529402456" cy="123.75502744774849" opacity="0.2812947784869154"></circle><circle r="6.399373538407324" cx="774.1126657639377" cy="669.7505304897021" opacity="0.6243244547426968"></circle><circle r="5.190230644175993" cx="490.0240643978541" cy="285.71686571203014" opacity="0.12654598466101313"></circle><circle r="8.084558888255632" cx="538.9648498890797" cy="639.4662094348097" opacity="0.7395266574033675"></circle><circle r="5.985065720342433" cx="624.8286485835273" cy="248.3625005021525" opacity="0.9534169588050427"></circle><circle r="6.194285864359134" cx="335.577221953666" cy="469.45127964107405" opacity="0.2573132145324999"></circle><circle r="9.662140865651397" cx="117.66603040537015" cy="677.0539300071981" opacity="0.7717940101211472"></circle><circle r="8.042166329352481" cx="358.7193331289886" cy="273.1741296681543" opacity="0.5140559801622113"></circle><circle r="7.726955123321678" cx="85.57434049035629" cy="334.72795669172183" opacity="0.39664870153797194"></circle><circle r="3.8096675684581447" cx="489.48854646330693" cy="135.5151464699866" opacity="0.602645874737462"></circle><circle r="7.81804281199852" cx="424.8952242088088" cy="370.0435097933287" opacity="0.8021909028672329"></circle><circle r="7.474416226878667" cx="594.5065057627089" cy="530.2271089181847" opacity="0.8906610022166661"></circle><circle r="8.703627340518238" cx="588.0727582638667" cy="69.59736572655487" opacity="0.353742525692059"></circle><circle r="5.906303787105218" cx="531.3277338556644" cy="785.0550730154372" opacity="0.6470473682731807"></circle><circle r="9.643230475613176" cx="396.54458972192555" cy="334.7572090463894" opacity="0.9343606951598847"></circle><circle r="6.874650479486562" cx="526.2745627967578" cy="20.819949047226253" opacity="0.7653699827846183"></circle><circle r="9.762396511366342" cx="21.298276086798978" cy="89.03851121824854" opacity="0.3139982871622522"></circle><circle r="8.499699716622946" cx="681.7149375253243" cy="630.924372207203" opacity="0.950156006582375"></circle><circle r="6.716842119324213" cx="707.5813498613835" cy="194.38209038035984" opacity="0.16860919812743555"></circle><circle r="6.263270732500266" cx="225.0219867460498" cy="131.79107065851446" opacity="0.761378735939778"></circle><circle r="5.189841458770344" cx="545.8215518413277" cy="197.40925602877138" opacity="0.3209657514854441"></circle><circle r="8.625771828318523" cx="780.5918255081419" cy="274.97601713087556" opacity="0.5499995258756427"></circle><circle r="9.556838771785493" cx="702.8434139951456" cy="238.5983560226078" opacity="0.38530588783761854"></circle><circle r="3.145055629643893" cx="398.87556544212856" cy="788.6072641692799" opacity="0.6827997895011354"></circle><circle r="4.608046910449147" cx="61.808730511644626" cy="106.0818392103636" opacity="0.2599900449284809"></circle><circle r="10.882741793325723" cx="769.8161791235249" cy="380.3554891656163" opacity="0.6409206316224287"></circle><circle r="6.433900633415485" cx="567.9694825275581" cy="335.32977663427175" opacity="0.6008423214696772"></circle><circle r="4.715738746126726" cx="390.9560692692449" cy="477.35902360467685" opacity="0.40022344085852934"></circle><circle r="8.125491701567068" cx="658.0869267973865" cy="718.1573179842042" opacity="0.5971273950569699"></circle><circle r="8.767295515753496" cx="245.37711190719295" cy="771.4113145941991" opacity="0.5528728953656727"></circle><circle r="4.465225244466728" cx="488.9123022339348" cy="314.5048129881945" opacity="0.4789872407185377"></circle><circle r="9.71156150634914" cx="203.12961960658777" cy="45.475161242831454" opacity="0.3531502079442431"></circle><circle r="9.74949039434615" cx="565.7823947823547" cy="22.688724011240247" opacity="0.8326651077059324"></circle><circle r="6.339550847078241" cx="174.56337898565627" cy="746.4523647624766" opacity="0.1759594733808255"></circle><circle r="7.476488259499126" cx="478.407864345777" cy="343.12060253492456" opacity="0.3561897758636444"></circle><circle r="4.846960993567949" cx="190.904447152649" cy="284.31570942258134" opacity="0.21671132181650565"></circle><circle r="7.750913840701018" cx="376.49678692291957" cy="752.0885859911472" opacity="0.9525613123462968"></circle><circle r="7.087302435306077" cx="707.5687951837389" cy="598.7345323329646" opacity="0.49796334946446863"></circle><circle r="5.116601959889127" cx="138.48529915707616" cy="512.9938009134379" opacity="0.21478195122112406"></circle><circle r="8.172995418366742" cx="486.8069561052263" cy="377.24152767689355" opacity="0.787085836376631"></circle><circle r="4.437253753678965" cx="588.7529888402628" cy="272.6497044262692" opacity="0.6966271673248207"></circle><circle r="11.130529281797322" cx="508.6574800127307" cy="466.21903124664505" opacity="0.19259053632181847"></circle><circle r="3.054242737937966" cx="533.192128677241" cy="328.3190137795037" opacity="0.8239513314103472"></circle><circle r="5.521666545162908" cx="480.87471770713" cy="785.9193498452569" opacity="0.17231383296886998"></circle><circle r="7.538387663882334" cx="56.86479020080726" cy="56.80621213703786" opacity="0.7593478531894253"></circle><circle r="7.702294728527347" cx="65.72643165367502" cy="408.5643169377115" opacity="0.5650667747248379"></circle><circle r="7.206485891561507" cx="736.5857748025419" cy="656.4983832981472" opacity="0.3433238974995225"></circle><circle r="5.76226237789694" cx="625.7607098075074" cy="503.7434646248167" opacity="0.5634269094222126"></circle><circle r="8.69113440586554" cx="380.69581459084964" cy="108.70218774033668" opacity="0.14157918299792963"></circle><circle r="8.106754041580851" cx="66.46381364109057" cy="591.6936047291907" opacity="0.26807900848883526"></circle><circle r="10.923426843538824" cx="438.69731396536554" cy="261.4230760362054" opacity="0.28716451127129927"></circle><circle r="9.173913219988751" cx="230.04122960676327" cy="498.6184232425536" opacity="0.9167160554742865"></circle><circle r="8.34329139835908" cx="676.3655269637853" cy="266.9762576946257" opacity="0.9473651507694842"></circle><circle r="9.662932884460893" cx="617.4394236658824" cy="26.252388803987827" opacity="0.4943969719102639"></circle><circle r="9.01610746352729" cx="21.705591640381883" cy="262.05535366671944" opacity="0.8173133283429399"></circle><circle r="7.719263816985221" cx="655.1162735885026" cy="294.8979424258913" opacity="0.843760849717149"></circle><circle r="4.821081555506543" cx="183.91714597773276" cy="21.40957456917529" opacity="0.156301311657776"></circle><circle r="6.049302157710522" cx="207.16296237026262" cy="354.5153972151525" opacity="0.4780727391614603"></circle><circle r="5.31172309750505" cx="128.05033913621918" cy="112.90047933793763" opacity="0.8538033003543373"></circle><circle r="7.019578226502158" cx="237.36974897302653" cy="425.8358250081895" opacity="0.611538589408411"></circle><circle r="7.232464548623168" cx="206.9121881642132" cy="714.7058640997213" opacity="0.8204874042504797"></circle><circle r="7.490077779162414" cx="174.24862087202428" cy="604.4797743439493" opacity="0.7152667428257019"></circle><circle r="6.7325479764089735" cx="287.28929269829786" cy="449.8106882665201" opacity="0.4470761585633525"></circle><circle r="3.7560133520375443" cx="48.7984446579506" cy="14.787828063291222" opacity="0.15299672954014593"></circle><circle r="7.177189513889692" cx="300.66557228993486" cy="157.06687861036326" opacity="0.9741349429297128"></circle><circle r="4.708775018046842" cx="290.07036437604376" cy="91.47472508940281" opacity="0.8281229026075307"></circle><circle r="6.539941301856229" cx="514.0328243584524" cy="159.44410050044934" opacity="0.7016139906429485"></circle><circle r="5.422632087742157" cx="505.42228481213715" cy="422.2758454651297" opacity="0.6408701541747818"></circle><circle r="5.283608587136878" cx="359.4751283401493" cy="724.6665087990689" opacity="0.1556708014314074"></circle><circle r="6.464099735348359" cx="502.8865048943743" cy="636.8955672800521" opacity="0.45644949123048495"></circle><circle r="5.720187820229009" cx="508.3183974696776" cy="767.185738269666" opacity="0.9659955166754213"></circle><circle r="6.9050621092668525" cx="578.3289690351562" cy="603.1772310341449" opacity="0.5038100314812475"></circle><circle r="9.967894244497721" cx="423.66999625349814" cy="708.1001151182363" opacity="0.3970685378551799"></circle><circle r="7.697868004807756" cx="783.5633023849322" cy="47.24130261202376" opacity="0.33037972340624483"></circle><circle r="5.845121702307722" cx="648.6469073312419" cy="436.62811154900334" opacity="0.7405281907218361"></circle><circle r="10.457390040915511" cx="658.0566244293816" cy="771.0569480768418" opacity="0.48753387079384836"></circle><circle r="5.7027078540111535" cx="787.0107209023532" cy="707.5263151328282" opacity="0.683653990391866"></circle><circle r="7.757881687984173" cx="584.2340892637121" cy="718.305959589675" opacity="0.2627531193112701"></circle><circle r="9.061947135013982" cx="21.169528738555968" cy="617.8385285439986" opacity="0.6437526762352411"></circle><circle r="4.362201176969111" cx="718.7069013571219" cy="629.4734748619633" opacity="0.7888141168479756"></circle><circle r="6.473407570739066" cx="397.3983767360953" cy="296.2873630148819" opacity="0.47080736219845243"></circle><circle r="5.0208123213794575" cx="142.55419902582094" cy="326.75707642384566" opacity="0.26709666259756026"></circle><circle r="7.99634283176316" cx="110.30225720500242" cy="258.22941859931814" opacity="0.6081382860879845"></circle><circle r="4.208594017799225" cx="175.52715783586942" cy="200.2372042619086" opacity="0.1085947269564672"></circle><circle r="13.822351906377929" cx="64.00502043397212" cy="702.7885705722703" opacity="0.6018067239721318"></circle><circle r="4.848802588822632" cx="566.7296525547595" cy="388.14144528314864" opacity="0.15398927896319953"></circle><circle r="7.983464824742345" cx="201.94309574915906" cy="395.69775042710984" opacity="0.8136675954460477"></circle><circle r="7.327773679763187" cx="171.84309156502755" cy="152.4782551662404" opacity="0.6494231158575549"></circle><circle r="10.368163472426822" cx="630.5319337220043" cy="141.94505650714135" opacity="0.4175812152875372"></circle><circle r="8.623733970502855" cx="99.13246432807327" cy="511.504954329863" opacity="0.8736564591523129"></circle><circle r="9.709244929800892" cx="247.42158540411015" cy="385.30971378295783" opacity="0.3994055979163589"></circle><circle r="8.035115798978609" cx="66.82739991045817" cy="276.5308128920029" opacity="0.5650582017540741"></circle><circle r="8.396678067949045" cx="665.4214730756585" cy="337.1529338401564" opacity="0.3253102021528653"></circle><circle r="10.304850604234199" cx="535.0855987157413" cy="64.95541231799768" opacity="0.5208126716199433"></circle><circle r="6.600650032608025" cx="622.5718943174409" cy="588.0892910000837" opacity="0.9359338078169153"></circle><circle r="6.423704725114533" cx="780.2827973351332" cy="537.0928091803669" opacity="0.9302378885166221"></circle><circle r="5.373333423942522" cx="644.6649932732124" cy="526.4873150518213" opacity="0.5411345795163836"></circle><circle r="6.636257875499297" cx="655.4348219314867" cy="587.5436467037932" opacity="0.35545335622180285"></circle><circle r="9.753200272051965" cx="158.3555544118263" cy="414.14215615256603" opacity="0.5280074159547504"></circle><circle r="6.997152443766033" cx="774.1029603293981" cy="14.293383581357176" opacity="0.6821058252952953"></circle><circle r="10.39627759652166" cx="441.14829727545975" cy="532.6327391204494" opacity="0.30141945939813086"></circle><circle r="5.900845317176341" cx="517.3537175818955" cy="106.20434643324973" opacity="0.39001270138805144"></circle><circle r="3.5517219671446334" cx="752.6615506254558" cy="788.0391574937121" opacity="0.26667029521058194"></circle><circle r="8.733110557392152" cx="116.10727684396431" cy="151.66676446056724" opacity="0.31815742845860273"></circle><circle r="10.53360737561326" cx="220.37970823668962" cy="643.6864301234821" opacity="0.6295485837714252"></circle><circle r="10.896222282260716" cx="256.8155996515395" cy="174.78963047243408" opacity="0.1238786403843285"></circle><circle r="7.283268133625489" cx="381.08315855258496" cy="440.8540345485901" opacity="0.507803663634077"></circle><circle r="5.081528528368762" cx="196.12919638003282" cy="87.70081694149505" opacity="0.8591488135940949"></circle><circle r="5.241203127461873" cx="455.9319147711684" cy="299.1160209268351" opacity="0.49082376095825775"></circle><circle r="6.615904053596957" cx="623.8385071122764" cy="728.5909124720409" opacity="0.3468859790468787"></circle><circle r="6.62683821990159" cx="700.2030666713878" cy="744.8097782900225" opacity="0.8387602583950947"></circle><circle r="7.785933913188205" cx="412.6876027820847" cy="161.91241999679497" opacity="0.6360036152614742"></circle><circle r="8.309907187147877" cx="782.4999056934547" cy="222.59471793094718" opacity="0.17706451758461014"></circle><circle r="3.0818165664858377" cx="160.21792439150659" cy="269.6408501677061" opacity="0.7506619173637347"></circle><circle r="5.248839640113709" cx="215.952899105646" cy="160.9183495400752" opacity="0.36250876855650604"></circle><circle r="8.077475085151843" cx="598.8062345850034" cy="114.0343223258454" opacity="0.515060502392769"></circle><circle r="7.208228334860209" cx="126.271586821077" cy="371.5042475765532" opacity="0.871082645165542"></circle><circle r="9.450418306560827" cx="20.38392779875265" cy="679.6801885458432" opacity="0.8559974835500603"></circle><circle r="5.098477168249025" cx="498.8529414045037" cy="255.10589101734743" opacity="0.6639697557456078"></circle><circle r="5.280795539168491" cx="199.70757254080982" cy="242.20350136947974" opacity="0.5145991666721218"></circle><circle r="6.8683460348139285" cx="391.5372411183278" cy="249.21107062935792" opacity="0.23075092324358568"></circle><circle r="8.413636839626625" cx="618.956853017113" cy="317.45471774940444" opacity="0.8771164417658299"></circle><circle r="5.468107692979546" cx="116.45388900342815" cy="426.1709931451473" opacity="0.7202602104967857"></circle><circle r="4.653314200435306" cx="597.1496426912248" cy="564.944988587097" opacity="0.6859568378709006"></circle><circle r="7.696053122763473" cx="578.0893828397968" cy="304.19534750864324" opacity="0.7343226836472405"></circle><circle r="4.981859632631671" cx="479.09226676607267" cy="46.261377123954375" opacity="0.11722717594759835"></circle><circle r="8.249820503984253" cx="733.8696203113692" cy="159.31251365144846" opacity="0.5385509100680715"></circle><circle r="7.253164862054071" cx="165.84433993657532" cy="375.8995077346659" opacity="0.17184379209684117"></circle><circle r="6.327251454197034" cx="225.052886689234" cy="76.80299715691103" opacity="0.9245984238021162"></circle><circle r="10.819157151924314" cx="117.81659674056907" cy="748.2967793253848" opacity="0.5371799143918191"></circle><circle r="7.695705380383851" cx="360.00353785303105" cy="174.85475207950543" opacity="0.9627738157929763"></circle><circle r="5.981900481630503" cx="424.7175990574782" cy="569.7724963194945" opacity="0.2948120583314937"></circle><circle r="3.872492393735312" cx="365.2605201742276" cy="785.7792395857244" opacity="0.9023595097734819"></circle><circle r="11.349198146121322" cx="336.575084866315" cy="423.4853827230879" opacity="0.8140173469872796"></circle><circle r="7.717750881992758" cx="774.9471874184784" cy="621.73226087905" opacity="0.8788211617483348"></circle><circle r="9.21515305099926" cx="572.1835909312148" cy="162.13004157665932" opacity="0.5998227020581883"></circle><circle r="5.383453165825547" cx="784.7595894546504" cy="577.7047173111523" opacity="0.12073223073982517"></circle><circle r="5.618818429838673" cx="212.65404227034375" cy="319.6062803195937" opacity="0.7948732416468763"></circle><circle r="7.74756542705501" cx="302.3349766793207" cy="201.09013475732522" opacity="0.4293605063659408"></circle><circle r="11.77032907562181" cx="715.6447271248849" cy="480.0041848891522" opacity="0.43334177193713475"></circle><circle r="8.62718886229938" cx="106.08259455015995" cy="208.07026547618293" opacity="0.727744311212137"></circle><circle r="7.410836858965232" cx="330.6147847437719" cy="335.3725972213524" opacity="0.1267228694485245"></circle><circle r="7.132319400883842" cx="224.19076286759923" cy="280.54743629249504" opacity="0.8351236842575683"></circle><circle r="11.666181565595172" cx="152.40153088893894" cy="551.5728084308299" opacity="0.40892379254519307"></circle><circle r="8.156677600488468" cx="565.8807246798107" cy="755.4186557081503" opacity="0.767743091716816"></circle><circle r="5.580612353994587" cx="516.9138755814627" cy="303.12189112329423" opacity="0.12143340956212487"></circle><circle r="6.238847032594611" cx="585.6989679899" cy="643.7949735147364" opacity="0.20953163517958406"></circle><circle r="6.4111147772964205" cx="80.97705166356482" cy="373.92152794149" opacity="0.274709379146375"></circle><circle r="4.5663795698593725" cx="613.6571452625485" cy="784.6033324032037" opacity="0.6375752761894312"></circle><circle r="9.48593307834293" cx="56.19059040548495" cy="515.7805009412538" opacity="0.9175578586386117"></circle><circle r="6.395822831662921" cx="203.30501626326745" cy="190.5003333308789" opacity="0.6926474444229648"></circle><circle r="6.126301223220873" cx="678.9838940615894" cy="578.4736255694464" opacity="0.886273660320121"></circle><circle r="5.370742425961217" cx="17.57699433385486" cy="32.34847880864673" opacity="0.9969622801742511"></circle><circle r="7.614150554063951" cx="741.0878854904689" cy="257.74027735736934" opacity="0.4569179355794001"></circle><circle r="7.762682953023556" cx="22.960498868041594" cy="351.39504061221805" opacity="0.4960758027079888"></circle><circle r="7.625903862100948" cx="169.78541562079124" cy="674.6313367320498" opacity="0.43760403273446224"></circle><circle r="7.016706320227037" cx="442.70973332195024" cy="338.1984644379876" opacity="0.8739025023917397"></circle><circle r="7.602416102966868" cx="683.6432474789393" cy="522.8577540687807" opacity="0.9098343203252008"></circle><circle r="4.704357844357383" cx="758.7142782167853" cy="724.6239952047873" opacity="0.7549282304183484"></circle><circle r="10.807778447358624" cx="731.8481098014581" cy="409.41517521908287" opacity="0.42027278111428057"></circle><circle r="9.331224532160519" cx="391.010754830993" cy="603.7261346401374" opacity="0.6424514982096549"></circle><circle r="9.521291837526778" cx="23.156489829042723" cy="399.86713252589055" opacity="0.526664028700223"></circle><circle r="6.806580055958221" cx="731.0962284111556" cy="290.892590699178" opacity="0.6318880419457064"></circle><circle r="9.890430245184646" cx="400.15688831442725" cy="400.0430569664781" opacity="0.7108138171329552"></circle><circle r="4.519524222217835" cx="241.93190311794106" cy="106.08441395478864" opacity="0.29488206938966155"></circle><circle r="4.184229311485208" cx="617.2843221122283" cy="622.599374113167" opacity="0.3183514984969353"></circle><circle r="3.9173354629720523" cx="411.5573458750707" cy="761.4582666054096" opacity="0.6928057437203796"></circle><circle r="6.402027451088255" cx="452.45159190249444" cy="487.92164081005916" opacity="0.4044077475405867"></circle><circle r="7.075290584974728" cx="109.46680165898809" cy="307.1880434478636" opacity="0.46136867750993027"></circle><circle r="7.260816012787517" cx="675.8454295310371" cy="154.9620563005341" opacity="0.9298153545176967"></circle><circle r="6.7677424164804485" cx="715.8060100163158" cy="321.104277929364" opacity="0.40678292243266934"></circle><circle r="9.053903767102284" cx="205.30273372432987" cy="779.0649217790432" opacity="0.27569532881941683"></circle><circle r="7.627571460032222" cx="318.9978888033282" cy="591.6538422041402" opacity="0.24047203732453873"></circle><circle r="5.697075774915369" cx="524.7790549109139" cy="745.215270647079" opacity="0.5154711723852129"></circle><circle r="6.376924617688765" cx="150.85394761086178" cy="224.40783665507118" opacity="0.3563101874076132"></circle><circle r="6.798907619134557" cx="429.65414778651945" cy="442.05516655190456" opacity="0.49411967285656966"></circle><circle r="6.573726928883158" cx="97.0499802146129" cy="465.5359493893504" opacity="0.7902144901888435"></circle><circle r="8.83112723961789" cx="474.7372849248329" cy="742.601850945464" opacity="0.4530066076354625"></circle><circle r="5.620153918472363" cx="714.9576587969387" cy="533.6042906770721" opacity="0.21738487036788767"></circle><circle r="6.3220241327833335" cx="395.8004006761863" cy="508.64693268369456" opacity="0.7651098625847048"></circle><circle r="5.800505504748376" cx="583.0212517749584" cy="234.34744779151984" opacity="0.5702104495170721"></circle><circle r="10.66727593453617" cx="552.303629644256" cy="120.22849450482319" opacity="0.19361068373896761"></circle><circle r="9.41582616849877" cx="348.53493807149596" cy="221.9828355117578" opacity="0.7679579464917844"></circle><circle r="5.586187830427655" cx="126.06021898912503" cy="476.0210430276131" opacity="0.5124718138716887"></circle><circle r="5.443060500529671" cx="341.11596557618105" cy="137.32959138785878" opacity="0.32191873299729723"></circle><circle r="9.529756313243045" cx="207.6943510781611" cy="561.936284283778" opacity="0.5648536555307272"></circle><circle r="7.317892016192721" cx="596.2186560522731" cy="491.7191922391079" opacity="0.5807176313456437"></circle><circle r="4.6144801198773235" cx="259.1609341508695" cy="269.4092258072379" opacity="0.6201311743813546"></circle><circle r="4.659978340001215" cx="567.4448032345931" cy="786.1252237275203" opacity="0.16725600876714736"></circle><circle r="4.2505851223101985" cx="102.34677509930818" cy="99.49503741413753" opacity="0.20386195550134967"></circle><circle r="8.186430024005986" cx="293.0749535125153" cy="365.2327905187142" opacity="0.15288296697762843"></circle><circle r="7.188350357267957" cx="649.9090126951078" cy="623.9521776264341" opacity="0.9716826879259766"></circle><circle r="4.6668783789428865" cx="722.468745894867" cy="571.6619090431218" opacity="0.5474633196755928"></circle><circle r="5.719995465487863" cx="541.6499074551878" cy="263.1004962636637" opacity="0.4401700912006964"></circle><circle r="4.982874726036781" cx="435.5134620103064" cy="641.3309750531338" opacity="0.5706007089280616"></circle><circle r="9.181916243265277" cx="161.6361023804804" cy="466.13771618915086" opacity="0.192765013999337"></circle><circle r="8.168288910206236" cx="559.1081047949232" cy="679.8679424729814" opacity="0.8200392896742403"></circle><circle r="6.9043267824557795" cx="19.693436519598514" cy="755.5391748432996" opacity="0.30676974845090754"></circle><circle r="8.09105383068116" cx="331.12596407662386" cy="94.85465759168761" opacity="0.16213580245714576"></circle><circle r="9.157431803730072" cx="71.77476944580175" cy="640.8046614317971" opacity="0.45575801734288557"></circle><circle r="6.108711130704222" cx="485.5579060448971" cy="234.11770061348014" opacity="0.8526865638989409"></circle><circle r="6.690129152130185" cx="439.33600249998705" cy="18.69511115755163" opacity="0.48278188243062037"></circle><circle r="7.1632372074178186" cx="764.19544918927" cy="80.86118241619579" opacity="0.3974345464137665"></circle><circle r="7.349545150213533" cx="609.6084238580157" cy="682.8739381885091" opacity="0.14766210994361453"></circle><circle r="8.056559867405433" cx="629.5059604869105" cy="185.93822678668087" opacity="0.5255757266923957"></circle><circle r="8.599525576359166" cx="443.23690188815743" cy="767.4957955207599" opacity="0.49543820878850386"></circle><circle r="5.398967549563004" cx="649.4537192290298" cy="554.7017883457975" opacity="0.5508725703630815"></circle><circle r="7.402789638144326" cx="65.91564227400124" cy="771.0229442151301" opacity="0.3453223671423723"></circle><circle r="7.371167300890713" cx="469.75454990876864" cy="437.1027483973325" opacity="0.8876669382607083"></circle><circle r="11.621591140563595" cx="236.88800350251435" cy="218.25247942280976" opacity="0.18322534584928254"></circle><circle r="6.4916366591515375" cx="694.0971846902595" cy="431.0643935906983" opacity="0.760900667487024"></circle><circle r="8.114908024669498" cx="398.0821908061655" cy="57.52137904143579" opacity="0.8626127278282328"></circle><circle r="6.300946902239605" cx="645.7990007473807" cy="386.7287060026412" opacity="0.5156678785127277"></circle><circle r="5.147916342894757" cx="291.78271903560744" cy="408.43005549529266" opacity="0.6602502746755291"></circle><circle r="6.818911451479773" cx="549.7559798208987" cy="429.6759976597725" opacity="0.27589503559403017"></circle><circle r="7.986096786435221" cx="732.7521696895858" cy="25.075006773456924" opacity="0.21118618952830168"></circle><circle r="6.771168690694234" cx="231.48286953034022" cy="595.2114775112423" opacity="0.8506029619313964"></circle><circle r="3.213940666425879" cx="106.70031436402094" cy="11.57109498446835" opacity="0.8032387806052346"></circle><circle r="4.805318168533686" cx="699.5610014380524" cy="785.7073651752343" opacity="0.944577943330942"></circle><circle r="8.401141383254988" cx="450.88166589790757" cy="143.6041527940444" opacity="0.3972794177079888"></circle><circle r="9.951478287192712" cx="65.7599271801483" cy="221.38782890642787" opacity="0.4005051418230271"></circle><circle r="5.331310934960007" cx="248.17294077146144" cy="19.889545738721566" opacity="0.8857312855794146"></circle><circle r="11.943683146588832" cx="553.7772644559426" cy="490.49696445916777" opacity="0.7683233930377926"></circle><circle r="8.461705628531327" cx="720.4931755703303" cy="704.2386562685799" opacity="0.1584388442597688"></circle><circle r="8.780039522944284" cx="714.6605455941277" cy="358.5705520040699" opacity="0.7710768031441034"></circle><circle r="6.107797405821949" cx="511.54058003197787" cy="331.5288563853385" opacity="0.3630825291538947"></circle><circle r="10.55645357090455" cx="24.845694862628637" cy="550.6564438150909" opacity="0.34433210107007184"></circle><circle r="8.958882388354267" cx="684.4748584995305" cy="680.5928241251622" opacity="0.12104220733228618"></circle><circle r="9.814610246998178" cx="425.1931541392471" cy="101.08937087163366" opacity="0.9914689003018118"></circle><circle r="6.342537940162411" cx="376.83333412685556" cy="21.055251364080195" opacity="0.6504686086502511"></circle><circle r="6.146033746203302" cx="148.6048865749108" cy="19.204597588264395" opacity="0.6840103205841991"></circle><circle r="10.325291110934828" cx="190.78476243436089" cy="513.6932861822228" opacity="0.1488767164212369"></circle><circle r="4.6864765649058215" cx="307.3113373488698" cy="542.1785234528327" opacity="0.2507226068922389"></circle><circle r="5.680050761833506" cx="200.67361674135418" cy="451.6083679203086" opacity="0.44157816671243544"></circle><circle r="5.800517424397491" cx="340.9808890279849" cy="553.293963353322" opacity="0.9435178383175105"></circle><circle r="5.65467769338583" cx="664.4989809391434" cy="480.44698367726795" opacity="0.7647511148293076"></circle><circle r="4.865669717628251" cx="492.13261092566086" cy="18.312307740025823" opacity="0.13330626802742823"></circle><circle r="9.628528275413945" cx="605.2221726972767" cy="410.1607797572394" opacity="0.5487046377245597"></circle><circle r="7.781895856693195" cx="774.5732977792177" cy="329.3910591936275" opacity="0.5986945780515892"></circle><circle r="6.636056870073492" cx="151.82738886821974" cy="783.4598398745009" opacity="0.6135891042481517"></circle><circle r="6.428972953393133" cx="318.8650763787973" cy="287.13126413116294" opacity="0.4598752641730395"></circle><circle r="9.604136092485358" cx="406.6197092616854" cy="211.2079283273457" opacity="0.3530231311003462"></circle><circle r="4.15992894207378" cx="79.31632658141116" cy="27.038955329328708" opacity="0.13749175834761657"></circle><circle r="4.753847886491853" cx="742.9568540086185" cy="535.9863064157396" opacity="0.34202135440296866"></circle><circle r="3.0148179705683864" cx="158.05322680327006" cy="247.6208949348239" opacity="0.27962549602772757"></circle><circle r="4.667348443509122" cx="283.01579892732383" cy="565.7282069457518" opacity="0.7330902044895532"></circle><circle r="8.12457889297484" cx="382.3395592110113" cy="544.0672420514177" opacity="0.7850161530896167"></circle><circle r="9.122661142215907" cx="139.18466012213491" cy="187.1840334541007" opacity="0.1640259327992447"></circle><circle r="8.968181340006732" cx="93.89579116793054" cy="554.9153827262934" opacity="0.9329481037543975"></circle><circle r="11.00838883742574" cx="708.5845804806823" cy="61.757480649237316" opacity="0.23490878443859967"></circle><circle r="8.240213046793157" cx="783.4689817044593" cy="767.2462323691045" opacity="0.24610965300199084"></circle><circle r="7.692087945309082" cx="507.86855165454756" cy="676.098224661936" opacity="0.24585585269899402"></circle><circle r="6.379859173658083" cx="61.06131718351487" cy="176.2340464365138" opacity="0.7210796514183372"></circle><circle r="9.687786046676049" cx="772.5475276353392" cy="444.3527754727463" opacity="0.5200047188637072"></circle><circle r="5.916097113871008" cx="62.383048096088096" cy="442.04644584622656" opacity="0.14216122155954686"></circle><circle r="8.741209411826329" cx="501.04031214357" cy="516.8644543910643" opacity="0.671645196491381"></circle><circle r="8.028774315970512" cx="296.58855689083396" cy="626.5080704725216" opacity="0.5243651289083309"></circle><circle r="8.619025974015484" cx="311.59635001159904" cy="662.6828812080048" opacity="0.967092704678277"></circle><circle r="9.460531811462765" cx="291.63818060050016" cy="500.53357500900046" opacity="0.7248499784918686"></circle><circle r="8.739086612802836" cx="450.7562278782358" cy="209.16599071419165" opacity="0.5098488889969023"></circle><circle r="7.685570369563454" cx="66.43865353980543" cy="479.58760336388264" opacity="0.9981098165352996"></circle><circle r="8.142319213152359" cx="252.8840421406239" cy="346.05028221580227" opacity="0.3657873959427663"></circle><circle r="9.71296479907463" cx="661.006451683853" cy="218.15555391488962" opacity="0.862123846214082"></circle><circle r="6.652497668275446" cx="149.4963209615878" cy="68.70282680614649" opacity="0.7603827616514443"></circle><circle r="5.36064024572694" cx="119.15937311705797" cy="38.21441913832403" opacity="0.5833443632163279"></circle><circle r="6.830267910241864" cx="266.3460728185766" cy="605.323682413345" opacity="0.3021884880677701"></circle><circle r="7.5185147174772595" cx="358.62265546735085" cy="583.5482828612224" opacity="0.12984323366372766"></circle><circle r="9.134977924154834" cx="309.93750482908126" cy="768.5758495530217" opacity="0.5793198041901791"></circle><circle r="7.736642416123989" cx="489.7089087734238" cy="708.4796548834489" opacity="0.7360297596700658"></circle><circle r="6.608666149682515" cx="521.3949735633846" cy="393.2076592693075" opacity="0.4047986747894947"></circle><circle r="5.942914474455193" cx="167.40337351054035" cy="347.39100670984635" opacity="0.6717168159918032"></circle><circle r="5.805764772720961" cx="684.6268928960397" cy="380.05073989508867" opacity="0.15038853338677755"></circle><circle r="7.088910123839331" cx="541.9607326903131" cy="233.1721081488914" opacity="0.6532614053298098"></circle><circle r="5.718958598896082" cx="105.96501827501201" cy="63.28864823573657" opacity="0.3770165050955703"></circle><circle r="7.254306723471291" cx="442.0581954852802" cy="603.3743010225996" opacity="0.7361321630165624"></circle><circle r="7.333436921940715" cx="287.6758827193449" cy="43.29401430504283" opacity="0.6859779665464985"></circle><circle r="6.459494452720247" cx="336.8685630522671" cy="696.2288128385856" opacity="0.6484726348351529"></circle><circle r="7.7666597209843555" cx="278.68273044840714" cy="740.7074448647775" opacity="0.1927641644748691"></circle><circle r="5.636272434330801" cx="736.493019485778" cy="760.4646572522317" opacity="0.6958176791426606"></circle><circle r="8.628930333272013" cx="745.8692769452525" cy="217.05000633116813" opacity="0.9213774661153277"></circle><circle r="5.719597109691238" cx="145.05818462498263" cy="291.1071105518545" opacity="0.21996458551395104"></circle><circle r="7.227160254363847" cx="750.0510397823515" cy="583.8415770529755" opacity="0.7700661770755436"></circle><circle r="3.7749241288134323" cx="515.8226706493372" cy="274.7979883328016" opacity="0.9199661048690563"></circle><circle r="4.453292166670518" cx="177.683107430467" cy="317.4323286234817" opacity="0.8963197401183356"></circle><circle r="6.536518471001675" cx="491.09868562480347" cy="191.64816722542264" opacity="0.8175868294027226"></circle><circle r="7.422759539220131" cx="487.11121171646585" cy="567.7961067590695" opacity="0.38038467448619373"></circle><circle r="4.715754041252417" cx="79.47523147015852" cy="78.7526406568778" opacity="0.8730063295454503"></circle><circle r="6.049329361991569" cx="542.2976838818347" cy="718.143400562699" opacity="0.5468965587042766"></circle><circle r="12.576761552685625" cx="397.1209189663693" cy="661.906424587207" opacity="0.12176606756065098"></circle><circle r="8.089123447197034" cx="454.77978334906845" cy="395.00990732573155" opacity="0.7659335119856965"></circle><circle r="7.0706876629002355" cx="17.8326297405762" cy="148.25920901267415" opacity="0.6425662046354936"></circle><circle r="12.001974500163353" cx="651.2211449977136" cy="86.04456059333427" opacity="0.1304655614198854"></circle><circle r="6.37215344346159" cx="464.11472278952397" cy="662.9570559443345" opacity="0.9034711126082883"></circle><circle r="10.887838693434558" cx="20.45217824059777" cy="472.778257623551" opacity="0.21113368296621676"></circle><circle r="5.260650021716992" cx="487.6098812189588" cy="610.5730114989834" opacity="0.7997385995415892"></circle><circle r="7.80559535751328" cx="20.21829625396959" cy="207.87572088757565" opacity="0.2990110278262872"></circle><circle r="8.442714685796037" cx="263.45324409695183" cy="311.4679836917892" opacity="0.27804087029289715"></circle><circle r="8.054276557667785" cx="596.9803471015263" cy="203.13858395738413" opacity="0.9446553226835183"></circle><circle r="3.399002355497776" cx="547.1549001010825" cy="314.84804915024097" opacity="0.2526609248991827"></circle><circle r="7.564876404540968" cx="340.43997132174064" cy="511.61877836882456" opacity="0.7575762978063363"></circle><circle r="4.8659651657308345" cx="605.0780400803435" cy="754.8835197056437" opacity="0.7083225356230253"></circle><circle r="9.249216340071602" cx="537.9421891608932" cy="589.9480392795044" opacity="0.7662596881310262"></circle><circle r="10.423997692343956" cx="547.0520704109541" cy="543.1849596888873" opacity="0.35992255904671033"></circle><circle r="7.320997752016593" cx="33.7126086639062" cy="313.87005705125495" opacity="0.5070534916524466"></circle><circle r="7.288806424601481" cx="602.5124904615933" cy="359.03407347960274" opacity="0.5339854751175188"></circle><circle r="5.246035686392084" cx="544.1998595540389" cy="291.10851560837017" opacity="0.9493638303795545"></circle><circle r="4.664509419251163" cx="337.7535703860663" cy="781.7803437595" opacity="0.42180785632889617"></circle><circle r="8.359675743183637" cx="778.3630478536376" cy="173.16951905725188" opacity="0.16914566947260778"></circle><circle r="7.8446848495508075" cx="252.54221390416745" cy="68.674331536256" opacity="0.30809466950390235"></circle><circle r="10.672026196425003" cx="261.7064635878346" cy="685.451387536868" opacity="0.6418787725535701"></circle><circle r="7.767876340243294" cx="356.54527767509023" cy="377.78572967857355" opacity="0.7763737742465917"></circle><circle r="8.771942144743448" cx="768.4881915887069" cy="496.0399949432973" opacity="0.7732790408101422"></circle><circle r="8.617978327551924" cx="711.0475333395183" cy="111.87872931129834" opacity="0.326544316921223"></circle><circle r="4.64062934191608" cx="695.1451220256979" cy="560.611793502915" opacity="0.6426336015030559"></circle><circle r="5.916357952846658" cx="643.1161539393694" cy="663.4209692900072" opacity="0.7777931862080589"></circle><circle r="8.801885897027978" cx="287.8018642767848" cy="241.6132455863612" opacity="0.4687700070820102"></circle><circle r="11.007291431213499" cx="330.2192093710643" cy="35.727765503583825" opacity="0.6669952500384722"></circle><circle r="5.772187053377026" cx="517.2086668666178" cy="358.0067546678613" opacity="0.3747453293416765"></circle><circle r="7.64434939196539" cx="253.47252542707335" cy="470.6655330562669" opacity="0.29034888870921843"></circle><circle r="9.879864205109653" cx="671.773920899096" cy="27.374063120804788" opacity="0.5063114782385961"></circle><circle r="12.045847075272162" cx="125.16968979191647" cy="608.4761635035237" opacity="0.9976689016680288"></circle><circle r="6.825751058525878" cx="578.490429311572" cy="449.27878381285666" opacity="0.22580331263329284"></circle></g></svg>