<svg xmlns="http://www.w3.org/2000/svg" version="1.1" xmlns:xlink="http://www.w3.org/1999/xlink" xmlns:svgjs="http://svgjs.com/svgjs" width="512" height="512" x="0" y="0" viewBox="0 0 682.667 682.667" style="enable-background:new 0 0 512 512" xml:space="preserve" class=""><g><defs><clipPath id="a" clipPathUnits="userSpaceOnUse"><path d="M0 512h512V0H0Z" fill="#000000" data-original="#000000"></path></clipPath></defs><path d="M0 0v-50l-30-10V0Z" style="fill-opacity:1;fill-rule:nonzero;stroke:none" transform="matrix(1.33333 0 0 -1.33333 301.333 586)" fill="#cccccc" data-original="#cccccc"></path><path d="M0 0v-60l-30 10V0Z" style="fill-opacity:1;fill-rule:nonzero;stroke:none" transform="matrix(1.33333 0 0 -1.33333 421.333 586)" fill="#b3b3b3" data-original="#b3b3b3"></path><g clip-path="url(#a)" transform="matrix(1.33333 0 0 -1.33333 0 682.667)"><path d="M0 0c0 28.809-19.105 53.024-45 60l-30.167-90H-15Z" style="fill-opacity:1;fill-rule:nonzero;stroke:none" transform="translate(301 444.5)" fill="#b3b3b3" data-original="#b3b3b3"></path><path d="m0 0 15-30h30v90C19.106 53.024 0 28.809 0 0" style="fill-opacity:1;fill-rule:nonzero;stroke:none" transform="translate(211 444.5)" fill="#cccccc" data-original="#cccccc"></path><path d="m0 0-15-43.5L0-75h45V0Z" style="fill-opacity:1;fill-rule:nonzero;stroke:none" transform="translate(256 444.5)" fill="#999999" data-original="#999999"></path><path d="M211 369.5h45v75h-45z" style="fill-opacity:1;fill-rule:nonzero;stroke:none" fill="#b3b3b3" data-original="#b3b3b3"></path><path d="M0 0c0 16.569 13.432 30 30 30V0c0-16.569-13.432-30-30-30L-15-5H0Z" style="fill-opacity:1;fill-rule:nonzero;stroke:none" transform="translate(316 324.5)" fill="#999999" data-original="#999999"></path><path d="M0 0c0 16.569-13.432 30-30 30V0c0-16.569 13.432-30 30-30L15-5H0Z" style="fill-opacity:1;fill-rule:nonzero;stroke:none" transform="translate(196 324.5)" fill="#b3b3b3" data-original="#b3b3b3"></path><path d="M0 0h30v-30L15-50 0-30Z" style="fill-opacity:1;fill-rule:nonzero;stroke:none" transform="translate(106 244.5)" fill="#cccccc" data-original="#cccccc"></path><path d="M0 0v-192l15-15 15 15V0Z" style="fill-opacity:1;fill-rule:nonzero;stroke:none" transform="translate(106 214.5)" fill="#ebebeb" data-original="#ebebeb"></path><path d="M211 114.5h30v105h-30z" style="fill-opacity:1;fill-rule:nonzero;stroke:none" fill="#808080" data-original="#808080"></path><path d="M0 0c0-8.284-6.716-15-15-15-8.284 0-15 6.716-15 15 0 8.284 6.716 15 15 15C-6.716 15 0 8.284 0 0" style="fill-opacity:1;fill-rule:nonzero;stroke:none" transform="translate(241 114.5)" fill="#999999" data-original="#999999"></path><path d="M271 114.5h30v105h-30z" style="fill-opacity:1;fill-rule:nonzero;stroke:none" fill="#696969" data-original="#696969"></path><path d="M0 0v45c0 11.046-8.954 20-20 20h-30l-25-90 45-90H0v65c0 10.685-6.036 20.007-15 25C-6.036-20.007 0-10.685 0 0" style="fill-opacity:1;fill-rule:nonzero;stroke:none" transform="translate(316 274.5)" fill="#fff0d3" data-original="#fff0d3"></path><path d="M0 0v45c0 11.046-8.954 20-20 20h-50c-11.045 0-20-8.954-20-20V0c0-10.685 6.036-20.007 15-25-8.964-4.993-15-14.315-15-25v-65H0v65c0 10.685-6.036 20.007-15 25C-6.036-20.007 0-10.685 0 0" style="fill-opacity:1;fill-rule:nonzero;stroke:none" transform="translate(286 274.5)" fill="#ffffff" data-original="#ffffff"></path><path d="M0 0c0-8.284-6.716-15-15-15-8.284 0-15 6.716-15 15 0 8.284 6.716 15 15 15C-6.716 15 0 8.284 0 0" style="fill-opacity:1;fill-rule:nonzero;stroke:none" transform="translate(301 114.5)" fill="#808080" data-original="#808080"></path><path d="M0 0v-77l-45-15" style="stroke-width:15;stroke-linecap:round;stroke-linejoin:round;stroke-miterlimit:10;stroke-dasharray:none;stroke-opacity:1" transform="translate(226 99.5)" fill="none" stroke="#000000" stroke-width="15" stroke-linecap="round" stroke-linejoin="round" stroke-miterlimit="10" stroke-dasharray="none" stroke-opacity="" data-original="#000000"></path><path d="M0 0v60h30" style="stroke-width:15;stroke-linecap:round;stroke-linejoin:round;stroke-miterlimit:10;stroke-dasharray:none;stroke-opacity:1" transform="translate(196 12.5)" fill="none" stroke="#000000" stroke-width="15" stroke-linecap="round" stroke-linejoin="round" stroke-miterlimit="10" stroke-dasharray="none" stroke-opacity="" data-original="#000000"></path><path d="M0 0v-77l45-15" style="stroke-width:15;stroke-linecap:round;stroke-linejoin:round;stroke-miterlimit:10;stroke-dasharray:none;stroke-opacity:1" transform="translate(286 99.5)" fill="none" stroke="#000000" stroke-width="15" stroke-linecap="round" stroke-linejoin="round" stroke-miterlimit="10" stroke-dasharray="none" stroke-opacity="" data-original="#000000"></path><path d="M0 0v60h-30" style="stroke-width:15;stroke-linecap:round;stroke-linejoin:round;stroke-miterlimit:10;stroke-dasharray:none;stroke-opacity:1" transform="translate(316 12.5)" fill="none" stroke="#000000" stroke-width="15" stroke-linecap="round" stroke-linejoin="round" stroke-miterlimit="10" stroke-dasharray="none" stroke-opacity="" data-original="#000000"></path><path d="M0 0h-90" style="stroke-width:15;stroke-linecap:round;stroke-linejoin:round;stroke-miterlimit:10;stroke-dasharray:none;stroke-opacity:1" transform="translate(301 249.5)" fill="none" stroke="#000000" stroke-width="15" stroke-linecap="round" stroke-linejoin="round" stroke-miterlimit="10" stroke-dasharray="none" stroke-opacity="" data-original="#000000"></path><path d="M0 0v-222l-15-15-15 15V0" style="stroke-width:15;stroke-linecap:round;stroke-linejoin:round;stroke-miterlimit:10;stroke-dasharray:none;stroke-opacity:1" transform="translate(136 244.5)" fill="none" stroke="#000000" stroke-width="15" stroke-linecap="round" stroke-linejoin="round" stroke-miterlimit="10" stroke-dasharray="none" stroke-opacity="" data-original="#000000"></path><path d="M0 0h60" style="stroke-width:15;stroke-linecap:round;stroke-linejoin:round;stroke-miterlimit:10;stroke-dasharray:none;stroke-opacity:1" transform="translate(91 244.5)" fill="none" stroke="#000000" stroke-width="15" stroke-linecap="round" stroke-linejoin="round" stroke-miterlimit="10" stroke-dasharray="none" stroke-opacity="" data-original="#000000"></path><path d="M0 0v45h-15c-8.284 0-15 6.716-15 15 0 8.284 6.716 15 15 15h60" style="stroke-width:15;stroke-linecap:round;stroke-linejoin:round;stroke-miterlimit:10;stroke-dasharray:none;stroke-opacity:1" transform="translate(121 244.5)" fill="none" stroke="#000000" stroke-width="15" stroke-linecap="round" stroke-linejoin="round" stroke-miterlimit="10" stroke-dasharray="none" stroke-opacity="" data-original="#000000"></path><path d="M0 0c0-41.421-33.578-75-75-75" style="stroke-width:15;stroke-linecap:round;stroke-linejoin:round;stroke-miterlimit:10;stroke-dasharray:none;stroke-opacity:1" transform="translate(421 394.5)" fill="none" stroke="#000000" stroke-width="15" stroke-linecap="round" stroke-linejoin="round" stroke-miterlimit="10" stroke-dasharray="none" stroke-opacity="" data-original="#000000"></path><path d="M0 0v-45c0-8.284 6.716-15 15-15 8.284 0 15 6.716 15 15V0" style="stroke-width:15;stroke-linecap:round;stroke-linejoin:round;stroke-miterlimit:10;stroke-dasharray:none;stroke-opacity:1" transform="translate(271 159.5)" fill="none" stroke="#000000" stroke-width="15" stroke-linecap="round" stroke-linejoin="round" stroke-miterlimit="10" stroke-dasharray="none" stroke-opacity="" data-original="#000000"></path><path d="M0 0v-45c0-8.28 6.72-15 15-15 8.28 0 15 6.72 15 15V0" style="stroke-width:15;stroke-linecap:round;stroke-linejoin:round;stroke-miterlimit:10;stroke-dasharray:none;stroke-opacity:1" transform="translate(211 159.5)" fill="none" stroke="#000000" stroke-width="15" stroke-linecap="round" stroke-linejoin="round" stroke-miterlimit="10" stroke-dasharray="none" stroke-opacity="" data-original="#000000"></path><path d="M0 0c0 8.284 6.716 15 15 15 8.284 0 15-6.716 15-15" style="stroke-width:15;stroke-linecap:round;stroke-linejoin:round;stroke-miterlimit:10;stroke-dasharray:none;stroke-opacity:1" transform="translate(271 114.5)" fill="none" stroke="#000000" stroke-width="15" stroke-linecap="round" stroke-linejoin="round" stroke-miterlimit="10" stroke-dasharray="none" stroke-opacity="" data-original="#000000"></path><path d="M0 0c0 8.28 6.72 15 15 15 8.28 0 15-6.72 15-15" style="stroke-width:15;stroke-linecap:round;stroke-linejoin:round;stroke-miterlimit:10;stroke-dasharray:none;stroke-opacity:1" transform="translate(211 114.5)" fill="none" stroke="#000000" stroke-width="15" stroke-linecap="round" stroke-linejoin="round" stroke-miterlimit="10" stroke-dasharray="none" stroke-opacity="" data-original="#000000"></path><path d="M0 0v-30" style="stroke-width:15;stroke-linecap:round;stroke-linejoin:round;stroke-miterlimit:10;stroke-dasharray:none;stroke-opacity:1" transform="translate(256 309.5)" fill="none" stroke="#ff4128" stroke-width="15" stroke-linecap="round" stroke-linejoin="round" stroke-miterlimit="10" stroke-dasharray="none" stroke-opacity="" data-original="#ff4128"></path><path d="M0 0h-30" style="stroke-width:15;stroke-linecap:round;stroke-linejoin:round;stroke-miterlimit:10;stroke-dasharray:none;stroke-opacity:1" transform="translate(271 294.5)" fill="none" stroke="#ff4128" stroke-width="15" stroke-linecap="round" stroke-linejoin="round" stroke-miterlimit="10" stroke-dasharray="none" stroke-opacity="" data-original="#ff4128"></path><path d="M0 0c0 10.685-6.036 20.007-15 25 8.964 4.993 15 14.315 15 25v45c0 11.046-8.955 20-20 20h-80c-11.046 0-20-8.954-20-20V50c0-10.685 6.036-20.007 15-25-8.964-4.993-15-14.315-15-25v-65H0Z" style="stroke-width:15;stroke-linecap:round;stroke-linejoin:round;stroke-miterlimit:10;stroke-dasharray:none;stroke-opacity:1" transform="translate(316 224.5)" fill="none" stroke="#000000" stroke-width="15" stroke-linecap="round" stroke-linejoin="round" stroke-miterlimit="10" stroke-dasharray="none" stroke-opacity="" data-original="#000000"></path><path d="M0 0v5c0 16.569 13.432 30 30 30V5c0-16.569-13.432-30-30-30" style="stroke-width:15;stroke-linecap:round;stroke-linejoin:round;stroke-miterlimit:10;stroke-dasharray:none;stroke-opacity:1" transform="translate(316 319.5)" fill="none" stroke="#000000" stroke-width="15" stroke-linecap="round" stroke-linejoin="round" stroke-miterlimit="10" stroke-dasharray="none" stroke-opacity="" data-original="#000000"></path><path d="M0 0v5c0 16.569-13.432 30-30 30V5c0-16.569 13.432-30 30-30" style="stroke-width:15;stroke-linecap:round;stroke-linejoin:round;stroke-miterlimit:10;stroke-dasharray:none;stroke-opacity:1" transform="translate(196 319.5)" fill="none" stroke="#000000" stroke-width="15" stroke-linecap="round" stroke-linejoin="round" stroke-miterlimit="10" stroke-dasharray="none" stroke-opacity="" data-original="#000000"></path><path d="M0 0h-90" style="stroke-width:15;stroke-linecap:round;stroke-linejoin:round;stroke-miterlimit:10;stroke-dasharray:none;stroke-opacity:1" transform="translate(301 444.5)" fill="none" stroke="#000000" stroke-width="15" stroke-linecap="round" stroke-linejoin="round" stroke-miterlimit="10" stroke-dasharray="none" stroke-opacity="" data-original="#000000"></path><path d="M0 0c-25.894-6.976-45-31.191-45-60v-75h90v75C45-31.191 25.895-6.976 0 0Z" style="stroke-width:15;stroke-linecap:round;stroke-linejoin:round;stroke-miterlimit:10;stroke-dasharray:none;stroke-opacity:1" transform="translate(256 504.5)" fill="none" stroke="#000000" stroke-width="15" stroke-linecap="round" stroke-linejoin="round" stroke-miterlimit="10" stroke-dasharray="none" stroke-opacity="" data-original="#000000"></path><path d="M0 0v75" style="stroke-width:15;stroke-linecap:round;stroke-linejoin:round;stroke-miterlimit:10;stroke-dasharray:none;stroke-opacity:1" transform="translate(256 369.5)" fill="none" stroke="#000000" stroke-width="15" stroke-linecap="round" stroke-linejoin="round" stroke-miterlimit="10" stroke-dasharray="none" stroke-opacity="" data-original="#000000"></path></g></g></svg>