<svg xmlns="http://www.w3.org/2000/svg" version="1.1" xmlns:xlink="http://www.w3.org/1999/xlink" xmlns:svgjs="http://svgjs.com/svgjs" width="512" height="512" x="0" y="0" viewBox="0 0 682.667 682.667" style="enable-background:new 0 0 512 512" xml:space="preserve" class=""><g><defs><clipPath id="a" clipPathUnits="userSpaceOnUse"><path d="M0 512h512V0H0Z" fill="#000000" data-original="#000000"></path></clipPath></defs><g clip-path="url(#a)" transform="matrix(1.33333 0 0 -1.33333 0 682.667)"><path d="m0 0-15.693 49.533h-42.906V-69.076l30 30c16.569 0 30 13.431 30 30C1.401-5.912.908-2.864 0 0" style="fill-opacity:1;fill-rule:nonzero;stroke:none" transform="translate(307.099 378.576)" fill="#6ba666" data-original="#6ba666"></path><path d="M0 0c0 3.164-.493 6.212-1.401 9.076l-15.693 49.533h-55.811L-88.599 9.076A29.979 29.979 0 0 1-90 0c0-16.569 13.432-30 30-30l30-30v30C-13.431-30 0-16.569 0 0" style="fill-opacity:1;fill-rule:nonzero;stroke:none" transform="translate(278.5 369.5)" fill="#80bf63" data-original="#80bf63"></path><path d="M0 0v-90c24.853 0 45 20.147 45 45S24.853 0 0 0" style="fill-opacity:1;fill-rule:nonzero;stroke:none" transform="translate(248.5 459.5)" fill="#ff8d7e" data-original="#ff8d7e"></path><path d="M0 0c0 24.853-6.716 45-15 45-24.853 0-45-20.147-45-45s20.147-45 45-45C-6.716-45 0-24.853 0 0" style="fill-opacity:1;fill-rule:nonzero;stroke:none" transform="translate(263.5 414.5)" fill="#ffb4a9" data-original="#ffb4a9"></path><path d="M0 0v-90c0-8.285 6.716-15 15-15 8.284 0 15 6.715 15 15v17.571A44.914 44.914 0 0 1 45-75c5.261 0 10.307.912 15 2.571L90 0Z" style="fill-opacity:1;fill-rule:nonzero;stroke:none" transform="translate(203.5 234.5)" fill="#a45e43" data-original="#a45e43"></path><path d="M0 0v-90c0-8.285 6.716-15 15-15 8.284 0 15 6.715 15 15V0Z" style="fill-opacity:1;fill-rule:nonzero;stroke:none" transform="translate(263.5 234.5)" fill="#85453d" data-original="#85453d"></path><path d="M0 0v45h-50l-25-70 45-45H0v5.335C0-49.454-5.671-35.575-15-25-6.036-20.007 0-10.685 0 0" style="fill-opacity:1;fill-rule:nonzero;stroke:none" transform="translate(308.5 274.5)" fill="#80bf63" data-original="#80bf63"></path><path d="M0 0v45h-90V0c0-10.685 6.036-20.007 15-25-9.329-10.575-15-24.454-15-39.665V-70H0v5.335C0-49.454-5.671-35.575-15-25-6.036-20.007 0-10.685 0 0" style="fill-opacity:1;fill-rule:nonzero;stroke:none" transform="translate(278.5 274.5)" fill="#aacf88" data-original="#aacf88"></path><path d="M0 0h-30l20-43.75A75.255 75.255 0 0 1 20-20C20-8.955 11.046 0 0 0" style="fill-opacity:1;fill-rule:nonzero;stroke:none" transform="translate(288.5 339.5)" fill="#568c6a" data-original="#568c6a"></path><path d="M0 0h-50c-11.046 0-20-8.955-20-20 13.683-18.215 35.464-30 60-30 10.667 0 20.813 2.23 30 6.245V-20C20-8.955 11.046 0 0 0" style="fill-opacity:1;fill-rule:nonzero;stroke:none" transform="translate(258.5 339.5)" fill="#6ba666" data-original="#6ba666"></path><path d="M0 0v-50l-30-10V0Z" style="fill-opacity:1;fill-rule:nonzero;stroke:none" transform="translate(218.5 72.5)" fill="#c27749" data-original="#c27749"></path><path d="M0 0v-60l-30 10V0Z" style="fill-opacity:1;fill-rule:nonzero;stroke:none" transform="translate(308.5 72.5)" fill="#a45e43" data-original="#a45e43"></path><path d="m0 0-10 10-10-10" style="stroke-width:15;stroke-linecap:round;stroke-linejoin:round;stroke-miterlimit:10;stroke-dasharray:none;stroke-opacity:1" transform="translate(138.5 279.5)" fill="none" stroke="#000000" stroke-width="15" stroke-linecap="round" stroke-linejoin="round" stroke-miterlimit="10" stroke-dasharray="none" stroke-opacity="" data-original="#000000"></path><path d="m0 0-15 15-15-15" style="stroke-width:15;stroke-linecap:round;stroke-linejoin:round;stroke-miterlimit:10;stroke-dasharray:none;stroke-opacity:1" transform="translate(143.5 489.5)" fill="none" stroke="#000000" stroke-width="15" stroke-linecap="round" stroke-linejoin="round" stroke-miterlimit="10" stroke-dasharray="none" stroke-opacity="" data-original="#000000"></path><path d="M0 0v215" style="stroke-width:15;stroke-linecap:round;stroke-linejoin:round;stroke-miterlimit:10;stroke-dasharray:none;stroke-opacity:1" transform="translate(128.5 289.5)" fill="none" stroke="#000000" stroke-width="15" stroke-linecap="round" stroke-linejoin="round" stroke-miterlimit="10" stroke-dasharray="none" stroke-opacity="" data-original="#000000"></path><path d="M0 0c0 16.568-13.431 30-30 30v-330c16.569 0 30 13.432 30 30 0 67.499 45 67.499 45 134.997C45-67.501 0-67.501 0 0Z" style="stroke-width:15;stroke-linecap:round;stroke-linejoin:round;stroke-miterlimit:10;stroke-dasharray:none;stroke-opacity:1" transform="translate(368.5 429.5)" fill="none" stroke="#000000" stroke-width="15" stroke-linecap="round" stroke-linejoin="round" stroke-miterlimit="10" stroke-dasharray="none" stroke-opacity="" data-original="#000000"></path><path d="M0 0c16.569 0 30 13.431 30 30 0 3.164-.493 6.212-1.401 9.076L12.906 88.609" style="stroke-width:15;stroke-linecap:round;stroke-linejoin:round;stroke-miterlimit:10;stroke-dasharray:none;stroke-opacity:1" transform="translate(278.5 339.5)" fill="none" stroke="#000000" stroke-width="15" stroke-linecap="round" stroke-linejoin="round" stroke-miterlimit="10" stroke-dasharray="none" stroke-opacity="" data-original="#000000"></path><path d="m0 0-15.693-49.533a29.944 29.944 0 0 1-1.402-9.076c0-16.569 13.432-30 30-30" style="stroke-width:15;stroke-linecap:round;stroke-linejoin:round;stroke-miterlimit:10;stroke-dasharray:none;stroke-opacity:1" transform="translate(205.595 428.109)" fill="none" stroke="#000000" stroke-width="15" stroke-linecap="round" stroke-linejoin="round" stroke-miterlimit="10" stroke-dasharray="none" stroke-opacity="" data-original="#000000"></path><path d="M0 0c0-24.853-20.147-45-45-45S-90-24.853-90 0s20.147 45 45 45S0 24.853 0 0Z" style="stroke-width:15;stroke-linecap:round;stroke-linejoin:round;stroke-miterlimit:10;stroke-dasharray:none;stroke-opacity:1" transform="translate(293.5 414.5)" fill="none" stroke="#000000" stroke-width="15" stroke-linecap="round" stroke-linejoin="round" stroke-miterlimit="10" stroke-dasharray="none" stroke-opacity="" data-original="#000000"></path><path d="M0 0h-90" style="stroke-width:15;stroke-linecap:round;stroke-linejoin:round;stroke-miterlimit:10;stroke-dasharray:none;stroke-opacity:1" transform="translate(293.5 249.5)" fill="none" stroke="#000000" stroke-width="15" stroke-linecap="round" stroke-linejoin="round" stroke-miterlimit="10" stroke-dasharray="none" stroke-opacity="" data-original="#000000"></path><path d="M0 0v-107l-45-15" style="stroke-width:15;stroke-linecap:round;stroke-linejoin:round;stroke-miterlimit:10;stroke-dasharray:none;stroke-opacity:1" transform="translate(218.5 129.5)" fill="none" stroke="#000000" stroke-width="15" stroke-linecap="round" stroke-linejoin="round" stroke-miterlimit="10" stroke-dasharray="none" stroke-opacity="" data-original="#000000"></path><path d="M0 0v60h30" style="stroke-width:15;stroke-linecap:round;stroke-linejoin:round;stroke-miterlimit:10;stroke-dasharray:none;stroke-opacity:1" transform="translate(188.5 12.5)" fill="none" stroke="#000000" stroke-width="15" stroke-linecap="round" stroke-linejoin="round" stroke-miterlimit="10" stroke-dasharray="none" stroke-opacity="" data-original="#000000"></path><path d="M0 0v-107l45-15" style="stroke-width:15;stroke-linecap:round;stroke-linejoin:round;stroke-miterlimit:10;stroke-dasharray:none;stroke-opacity:1" transform="translate(278.5 129.5)" fill="none" stroke="#000000" stroke-width="15" stroke-linecap="round" stroke-linejoin="round" stroke-miterlimit="10" stroke-dasharray="none" stroke-opacity="" data-original="#000000"></path><path d="M0 0v60h-30" style="stroke-width:15;stroke-linecap:round;stroke-linejoin:round;stroke-miterlimit:10;stroke-dasharray:none;stroke-opacity:1" transform="translate(308.5 12.5)" fill="none" stroke="#000000" stroke-width="15" stroke-linecap="round" stroke-linejoin="round" stroke-miterlimit="10" stroke-dasharray="none" stroke-opacity="" data-original="#000000"></path><path d="M0 0v-60c0-8.285-6.716-15-15-15-8.284 0-15 6.715-15 15v17.571A44.914 44.914 0 0 0-45-45c-5.261 0-10.307.912-15 2.571V-60c0-8.285-6.716-15-15-15-8.284 0-15 6.715-15 15V0" style="stroke-width:15;stroke-linecap:round;stroke-linejoin:round;stroke-miterlimit:10;stroke-dasharray:none;stroke-opacity:1" transform="translate(293.5 204.5)" fill="none" stroke="#000000" stroke-width="15" stroke-linecap="round" stroke-linejoin="round" stroke-miterlimit="10" stroke-dasharray="none" stroke-opacity="" data-original="#000000"></path><path d="M0 0v45c0 11.045-8.954 20-20 20h-80c-11.045 0-20-8.954-20-20V0c0-10.685 6.036-20.007 15-25-9.329-10.575-15-24.454-15-39.665V-70H0v5.335C0-49.454-5.671-35.575-15-25-6.036-20.007 0-10.685 0 0z" style="stroke-width:15;stroke-linecap:round;stroke-linejoin:round;stroke-miterlimit:10;stroke-dasharray:none;stroke-opacity:1" transform="translate(308.5 274.5)" fill="none" stroke="#000000" stroke-width="15" stroke-linecap="round" stroke-linejoin="round" stroke-miterlimit="10" stroke-dasharray="none" stroke-opacity="" data-original="#000000"></path><path d="M0 0c-13.683-18.215-35.464-30-60-30s-46.317 11.785-60 30h-75c-8.284 0-15 6.715-15 15 0 8.284 6.716 15 15 15h15" style="stroke-width:15;stroke-linecap:round;stroke-linejoin:round;stroke-miterlimit:10;stroke-dasharray:none;stroke-opacity:1" transform="translate(308.5 319.5)" fill="none" stroke="#000000" stroke-width="15" stroke-linecap="round" stroke-linejoin="round" stroke-miterlimit="10" stroke-dasharray="none" stroke-opacity="" data-original="#000000"></path></g></g></svg>