<svg xmlns="http://www.w3.org/2000/svg" version="1.1" xmlns:xlink="http://www.w3.org/1999/xlink" xmlns:svgjs="http://svgjs.com/svgjs" width="512" height="512" x="0" y="0" viewBox="0 0 682.667 682.667" style="enable-background:new 0 0 512 512" xml:space="preserve" class=""><g><defs><clipPath id="a" clipPathUnits="userSpaceOnUse"><path d="M0 512h512V0H0Z" fill="#000000" data-original="#000000"></path></clipPath></defs><g clip-path="url(#a)" transform="matrix(1.33333 0 0 -1.33333 0 682.667)"><path d="M0 0c-16.568 0-30-13.432-30-30 0-16.568 13.432-30 30-30l10 30z" style="fill-opacity:1;fill-rule:nonzero;stroke:none" transform="translate(143.5 489.5)" fill="#808080" data-original="#808080"></path><path d="M0 0v-60c16.568 0 30 13.432 30 30C30-13.432 16.568 0 0 0" style="fill-opacity:1;fill-rule:nonzero;stroke:none" transform="translate(143.5 489.5)" fill="#696969" data-original="#696969"></path><path d="M0 0c0 28.809-19.106 53.024-45 60l-30.167-90H0Z" style="fill-opacity:1;fill-rule:nonzero;stroke:none" transform="translate(308.5 444.5)" fill="#999999" data-original="#999999" class=""></path><path d="M0 0v-30h45v90C19.106 53.024 0 28.809 0 0" style="fill-opacity:1;fill-rule:nonzero;stroke:none" transform="translate(218.5 444.5)" fill="#b3b3b3" data-original="#b3b3b3" class=""></path><path d="M0 0v-90c24.853 0 45 20.147 45 45S24.853 0 0 0" style="fill-opacity:1;fill-rule:nonzero;stroke:none" transform="translate(263.5 459.5)" fill="#ffb4a9" data-original="#ffb4a9"></path><path d="M0 0c0 24.853-6.716 45-15 45-24.853 0-45-20.147-45-45s20.147-45 45-45C-6.716-45 0-24.853 0 0" style="fill-opacity:1;fill-rule:nonzero;stroke:none" transform="translate(278.5 414.5)" fill="#ffd9d4" data-original="#ffd9d4"></path><path d="M0 0c0 16.569-13.432 30-30 30V0c0-16.569 13.432-30 30-30L15-5H0Z" style="fill-opacity:1;fill-rule:nonzero;stroke:none" transform="translate(218.5 324.5)" fill="#ebebeb" data-original="#ebebeb"></path><path d="M0 0c0 16.569 13.432 30 30 30V0c0-16.569-13.432-30-30-30L-15-5H0Z" style="fill-opacity:1;fill-rule:nonzero;stroke:none" transform="translate(308.5 324.5)" fill="#cccccc" data-original="#cccccc"></path><path d="M0 0v-50l-30-10V0Z" style="fill-opacity:1;fill-rule:nonzero;stroke:none" transform="translate(233.5 72.5)" fill="#808080" data-original="#808080"></path><path d="M0 0v-60l-30 10V0Z" style="fill-opacity:1;fill-rule:nonzero;stroke:none" transform="translate(323.5 72.5)" fill="#696969" data-original="#696969"></path><path d="M0 0v-105h30v47.571A44.914 44.914 0 0 1 45-60c5.261 0 10.307.912 15 2.571L80 25Z" style="fill-opacity:1;fill-rule:nonzero;stroke:none" transform="translate(218.5 219.5)" fill="#b3b3b3" data-original="#b3b3b3" class=""></path><path d="M0 0c0-8.284-6.716-15-15-15-8.284 0-15 6.716-15 15 0 8.284 6.716 15 15 15C-6.716 15 0 8.284 0 0" style="fill-opacity:1;fill-rule:nonzero;stroke:none" transform="translate(248.5 114.5)" fill="#cccccc" data-original="#cccccc"></path><path d="M0 0v-150h30v105Z" style="fill-opacity:1;fill-rule:nonzero;stroke:none" transform="translate(278.5 264.5)" fill="#999999" data-original="#999999" class=""></path><path d="M0 0c0-8.284-6.716-15-15-15-8.284 0-15 6.716-15 15 0 8.284 6.716 15 15 15C-6.716 15 0 8.284 0 0" style="fill-opacity:1;fill-rule:nonzero;stroke:none" transform="translate(308.5 114.5)" fill="#b3b3b3" data-original="#b3b3b3" class=""></path><path d="M0 0h-30l15-45h30v5.335C15-24.454 9.329-10.575 0 0" style="fill-opacity:1;fill-rule:nonzero;stroke:none" transform="translate(308.5 249.5)" fill="#cccccc" data-original="#cccccc"></path><path d="M0 0h-60c-9.329-10.575-15-24.454-15-39.665V-45h90v5.335C15-24.454 9.329-10.575 0 0" style="fill-opacity:1;fill-rule:nonzero;stroke:none" transform="translate(278.5 249.5)" fill="#ebebeb" data-original="#ebebeb"></path><path d="M0 0h-30l20-100 30 10v70C20-8.954 11.046 0 0 0" style="fill-opacity:1;fill-rule:nonzero;stroke:none" transform="translate(288.5 339.5)" fill="#999999" data-original="#999999" class=""></path><path d="M0 0v80c0 11.046-8.954 20-20 20h-20c-11.046 0-20-8.954-20-20V10l45-15z" style="fill-opacity:1;fill-rule:nonzero;stroke:none" transform="translate(278.5 239.5)" fill="#b3b3b3" data-original="#b3b3b3" class=""></path><path d="M0 0v15" style="stroke-width:15;stroke-linecap:round;stroke-linejoin:round;stroke-miterlimit:10;stroke-dasharray:none;stroke-opacity:1" transform="translate(143.5 489.5)" fill="none" stroke="#000000" stroke-width="15" stroke-linecap="round" stroke-linejoin="round" stroke-miterlimit="10" stroke-dasharray="none" stroke-opacity="" data-original="#000000" class=""></path><path d="M0 0h-15c-8.284 0-15-6.716-15-15 0-8.285 6.716-15 15-15h60" style="stroke-width:15;stroke-linecap:round;stroke-linejoin:round;stroke-miterlimit:10;stroke-dasharray:none;stroke-opacity:1" transform="translate(143.5 349.5)" fill="none" stroke="#000000" stroke-width="15" stroke-linecap="round" stroke-linejoin="round" stroke-miterlimit="10" stroke-dasharray="none" stroke-opacity="" data-original="#000000" class=""></path><path d="M0 0c0-16.568-13.432-30-30-30-16.569 0-30 13.432-30 30 0 16.568 13.431 30 30 30C-13.432 30 0 16.568 0 0Z" style="stroke-width:15;stroke-linecap:round;stroke-linejoin:round;stroke-miterlimit:10;stroke-dasharray:none;stroke-opacity:1" transform="translate(173.5 459.5)" fill="none" stroke="#000000" stroke-width="15" stroke-linecap="round" stroke-linejoin="round" stroke-miterlimit="10" stroke-dasharray="none" stroke-opacity="" data-original="#000000" class=""></path><path d="M0 0v-180" style="stroke-width:15;stroke-linecap:round;stroke-linejoin:round;stroke-miterlimit:10;stroke-dasharray:none;stroke-opacity:1" transform="translate(143.5 429.5)" fill="none" stroke="#000000" stroke-width="15" stroke-linecap="round" stroke-linejoin="round" stroke-miterlimit="10" stroke-dasharray="none" stroke-opacity="" data-original="#000000" class=""></path><path d="m0 0-10.606 10.606" style="stroke-width:15;stroke-linecap:round;stroke-linejoin:round;stroke-miterlimit:10;stroke-dasharray:none;stroke-opacity:1" transform="translate(122.287 480.713)" fill="none" stroke="#000000" stroke-width="15" stroke-linecap="round" stroke-linejoin="round" stroke-miterlimit="10" stroke-dasharray="none" stroke-opacity="" data-original="#000000" class=""></path><path d="m0 0-10.606 10.606" style="stroke-width:15;stroke-linecap:round;stroke-linejoin:round;stroke-miterlimit:10;stroke-dasharray:none;stroke-opacity:1" transform="translate(175.32 427.68)" fill="none" stroke="#000000" stroke-width="15" stroke-linecap="round" stroke-linejoin="round" stroke-miterlimit="10" stroke-dasharray="none" stroke-opacity="" data-original="#000000" class=""></path><path d="M0 0h-15" style="stroke-width:15;stroke-linecap:round;stroke-linejoin:round;stroke-miterlimit:10;stroke-dasharray:none;stroke-opacity:1" transform="translate(113.5 459.5)" fill="none" stroke="#000000" stroke-width="15" stroke-linecap="round" stroke-linejoin="round" stroke-miterlimit="10" stroke-dasharray="none" stroke-opacity="" data-original="#000000" class=""></path><path d="M0 0h-15" style="stroke-width:15;stroke-linecap:round;stroke-linejoin:round;stroke-miterlimit:10;stroke-dasharray:none;stroke-opacity:1" transform="translate(188.5 459.5)" fill="none" stroke="#000000" stroke-width="15" stroke-linecap="round" stroke-linejoin="round" stroke-miterlimit="10" stroke-dasharray="none" stroke-opacity="" data-original="#000000" class=""></path><path d="m0 0-10.606-10.606" style="stroke-width:15;stroke-linecap:round;stroke-linejoin:round;stroke-miterlimit:10;stroke-dasharray:none;stroke-opacity:1" transform="translate(122.287 438.287)" fill="none" stroke="#000000" stroke-width="15" stroke-linecap="round" stroke-linejoin="round" stroke-miterlimit="10" stroke-dasharray="none" stroke-opacity="" data-original="#000000" class=""></path><path d="m0 0-10.606-10.606" style="stroke-width:15;stroke-linecap:round;stroke-linejoin:round;stroke-miterlimit:10;stroke-dasharray:none;stroke-opacity:1" transform="translate(175.32 491.32)" fill="none" stroke="#000000" stroke-width="15" stroke-linecap="round" stroke-linejoin="round" stroke-miterlimit="10" stroke-dasharray="none" stroke-opacity="" data-original="#000000" class=""></path><path d="M0 0v30c0 28.809-19.106 53.024-45 60-25.894-6.976-45-31.191-45-60V0" style="stroke-width:15;stroke-linecap:round;stroke-linejoin:round;stroke-miterlimit:10;stroke-dasharray:none;stroke-opacity:1" transform="translate(308.5 414.5)" fill="none" stroke="#000000" stroke-width="15" stroke-linecap="round" stroke-linejoin="round" stroke-miterlimit="10" stroke-dasharray="none" stroke-opacity="" data-original="#000000" class=""></path><path d="M0 0c0-24.853-20.147-45-45-45S-90-24.853-90 0s20.147 45 45 45S0 24.853 0 0Z" style="stroke-width:15;stroke-linecap:round;stroke-linejoin:round;stroke-miterlimit:10;stroke-dasharray:none;stroke-opacity:1" transform="translate(308.5 414.5)" fill="none" stroke="#000000" stroke-width="15" stroke-linecap="round" stroke-linejoin="round" stroke-miterlimit="10" stroke-dasharray="none" stroke-opacity="" data-original="#000000" class=""></path><path d="M0 0v5c0 16.569-13.432 30-30 30V5c0-16.569 13.432-30 30-30" style="stroke-width:15;stroke-linecap:round;stroke-linejoin:round;stroke-miterlimit:10;stroke-dasharray:none;stroke-opacity:1" transform="translate(218.5 319.5)" fill="none" stroke="#000000" stroke-width="15" stroke-linecap="round" stroke-linejoin="round" stroke-miterlimit="10" stroke-dasharray="none" stroke-opacity="" data-original="#000000" class=""></path><path d="M0 0v5c0 16.569 13.432 30 30 30V5c0-16.569-13.432-30-30-30" style="stroke-width:15;stroke-linecap:round;stroke-linejoin:round;stroke-miterlimit:10;stroke-dasharray:none;stroke-opacity:1" transform="translate(308.5 319.5)" fill="none" stroke="#000000" stroke-width="15" stroke-linecap="round" stroke-linejoin="round" stroke-miterlimit="10" stroke-dasharray="none" stroke-opacity="" data-original="#000000" class=""></path><path d="M0 0c0-41.421-33.579-75-75-75" style="stroke-width:15;stroke-linecap:round;stroke-linejoin:round;stroke-miterlimit:10;stroke-dasharray:none;stroke-opacity:1" transform="translate(413.5 394.5)" fill="none" stroke="#000000" stroke-width="15" stroke-linecap="round" stroke-linejoin="round" stroke-miterlimit="10" stroke-dasharray="none" stroke-opacity="" data-original="#000000" class=""></path><path d="M0 0v-77l-45-15" style="stroke-width:15;stroke-linecap:round;stroke-linejoin:round;stroke-miterlimit:10;stroke-dasharray:none;stroke-opacity:1" transform="translate(233.5 99.5)" fill="none" stroke="#000000" stroke-width="15" stroke-linecap="round" stroke-linejoin="round" stroke-miterlimit="10" stroke-dasharray="none" stroke-opacity="" data-original="#000000" class=""></path><path d="M0 0v60h30" style="stroke-width:15;stroke-linecap:round;stroke-linejoin:round;stroke-miterlimit:10;stroke-dasharray:none;stroke-opacity:1" transform="translate(203.5 12.5)" fill="none" stroke="#000000" stroke-width="15" stroke-linecap="round" stroke-linejoin="round" stroke-miterlimit="10" stroke-dasharray="none" stroke-opacity="" data-original="#000000" class=""></path><path d="M0 0v-77l45-15" style="stroke-width:15;stroke-linecap:round;stroke-linejoin:round;stroke-miterlimit:10;stroke-dasharray:none;stroke-opacity:1" transform="translate(293.5 99.5)" fill="none" stroke="#000000" stroke-width="15" stroke-linecap="round" stroke-linejoin="round" stroke-miterlimit="10" stroke-dasharray="none" stroke-opacity="" data-original="#000000" class=""></path><path d="M0 0v60h-30" style="stroke-width:15;stroke-linecap:round;stroke-linejoin:round;stroke-miterlimit:10;stroke-dasharray:none;stroke-opacity:1" transform="translate(323.5 12.5)" fill="none" stroke="#000000" stroke-width="15" stroke-linecap="round" stroke-linejoin="round" stroke-miterlimit="10" stroke-dasharray="none" stroke-opacity="" data-original="#000000" class=""></path><path d="M0 0v-90c0-8.28 6.72-15 15-15 8.28 0 15 6.72 15 15v47.571A44.914 44.914 0 0 1 45-45c5.261 0 10.307.912 15 2.571V-90c0-8.284 6.716-15 15-15 8.284 0 15 6.716 15 15V0" style="stroke-width:15;stroke-linecap:round;stroke-linejoin:round;stroke-miterlimit:10;stroke-dasharray:none;stroke-opacity:1" transform="translate(218.5 204.5)" fill="none" stroke="#000000" stroke-width="15" stroke-linecap="round" stroke-linejoin="round" stroke-miterlimit="10" stroke-dasharray="none" stroke-opacity="" data-original="#000000" class=""></path><path d="M0 0c0 8.284 6.716 15 15 15 8.284 0 15-6.716 15-15" style="stroke-width:15;stroke-linecap:round;stroke-linejoin:round;stroke-miterlimit:10;stroke-dasharray:none;stroke-opacity:1" transform="translate(278.5 114.5)" fill="none" stroke="#000000" stroke-width="15" stroke-linecap="round" stroke-linejoin="round" stroke-miterlimit="10" stroke-dasharray="none" stroke-opacity="" data-original="#000000" class=""></path><path d="M0 0c0 8.28 6.72 15 15 15 8.28 0 15-6.72 15-15" style="stroke-width:15;stroke-linecap:round;stroke-linejoin:round;stroke-miterlimit:10;stroke-dasharray:none;stroke-opacity:1" transform="translate(218.5 114.5)" fill="none" stroke="#000000" stroke-width="15" stroke-linecap="round" stroke-linejoin="round" stroke-miterlimit="10" stroke-dasharray="none" stroke-opacity="" data-original="#000000" class=""></path><path d="M0 0v70c0 11.046-8.954 20-20 20h-50c-11.045 0-20-8.954-20-20V0c-9.329-10.575-15-24.454-15-39.665V-45H15v5.335C15-24.454 9.329-10.575 0 0Z" style="stroke-width:15;stroke-linecap:round;stroke-linejoin:round;stroke-miterlimit:10;stroke-dasharray:none;stroke-opacity:1" transform="translate(308.5 249.5)" fill="none" stroke="#000000" stroke-width="15" stroke-linecap="round" stroke-linejoin="round" stroke-miterlimit="10" stroke-dasharray="none" stroke-opacity="" data-original="#000000" class=""></path><path d="m0 0-45-15-45 15" style="stroke-width:15;stroke-linecap:round;stroke-linejoin:round;stroke-miterlimit:10;stroke-dasharray:none;stroke-opacity:1" transform="translate(308.5 249.5)" fill="none" stroke="#000000" stroke-width="15" stroke-linecap="round" stroke-linejoin="round" stroke-miterlimit="10" stroke-dasharray="none" stroke-opacity="" data-original="#000000" class=""></path></g></g></svg>